<svg width="310.000000" height="225.000000" viewBox="0 0 310 225" fill="none" xmlns="http://www.w3.org/2000/svg" xmlns:xlink="http://www.w3.org/1999/xlink">
	<desc>
			Created with Pixso.
	</desc>
	<defs>
		<clipPath id="clip2_649">
			<rect id="Frame" width="20.000000" height="20.000000" transform="translate(178.000000 180.000000)" fill="white" fill-opacity="0"/>
		</clipPath>
	</defs>
	<rect id="Rectangle 50" width="310.000000" height="225.000000" fill="#FFFFFF" fill-opacity="1.000000"/>
	<path id="advertising" d="M166.77 36.52C166.77 37.15 166.22 37.66 165.56 37.66C164.9 37.66 164.35 37.15 164.35 36.52C164.35 35.9 164.9 35.38 165.56 35.38C166.22 35.38 166.77 35.9 166.77 36.52ZM180.9 36.52C180.9 37.15 180.35 37.66 179.69 37.66C179.02 37.66 178.48 37.15 178.48 36.52C178.48 35.9 179.02 35.38 179.69 35.38C180.35 35.38 180.9 35.9 180.9 36.52ZM108.74 45.53L107.54 49L105.44 49L110.15 35.9L112.44 35.9L117.15 49L115.05 49L113.85 45.53L108.74 45.53ZM125.24 47.47C124.89 48.09 124.19 49.19 122.4 49.19C120.02 49.19 118.3 47.28 118.3 44.1C118.3 40.92 120.04 39.05 122.42 39.05C124.24 39.05 124.89 40.16 125.24 40.77L125.36 40.77L125.36 35.9L127.27 35.9L127.27 49L125.4 49L125.4 47.47L125.24 47.47ZM160.47 39.18L162.48 39.18L162.48 40.71L160.47 40.71L160.47 46.11C160.47 47.22 161.03 47.42 161.65 47.42C161.96 47.42 162.19 47.36 162.32 47.34L162.66 48.92C162.44 49 162.03 49.12 161.42 49.12C159.92 49.15 158.56 48.29 158.56 46.51L158.56 40.71L157.12 40.71L157.12 39.18L158.56 39.18L158.56 36.83L160.47 36.83L160.47 39.18ZM111.25 38.28L109.32 43.87L113.28 43.87L111.35 38.28L111.25 38.28ZM152.32 49L150.41 49L150.41 39.18L152.26 39.18L152.26 40.74L152.36 40.74C152.72 39.68 153.7 39.03 154.85 39.03C155.1 39.03 155.47 39.05 155.67 39.08L155.67 40.9C155.51 40.86 155.06 40.79 154.67 40.79C153.31 40.79 152.32 41.71 152.32 43L152.32 49ZM148.16 46.54C147.73 48.14 146.21 49.19 144.07 49.19C141.17 49.19 139.4 47.2 139.4 44.15C139.4 41.13 141.2 39.05 143.94 39.05C146.16 39.05 148.28 40.43 148.28 43.99L148.28 44.66L141.3 44.66C141.35 46.55 142.45 47.62 144.09 47.62C145.18 47.62 146.01 47.14 146.35 46.21L148.16 46.54ZM172.72 39.05C174.84 39.05 176.04 40.05 176.43 41.57L174.7 41.88C174.48 41.22 173.93 40.56 172.74 40.56C171.65 40.56 170.83 41.1 170.84 41.85C170.83 42.52 171.3 42.88 172.38 43.14L173.94 43.5C175.74 43.91 176.62 44.77 176.62 46.16C176.62 47.94 174.98 49.19 172.61 49.19C170.41 49.19 168.96 48.22 168.64 46.48L170.49 46.2C170.72 47.16 171.45 47.65 172.6 47.65C173.85 47.65 174.66 47.06 174.66 46.3C174.66 45.69 174.22 45.26 173.28 45.05L171.61 44.69C169.77 44.28 168.93 43.35 168.93 41.96C168.93 40.22 170.5 39.05 172.72 39.05ZM187.4 40.7C186.07 40.7 185.11 41.6 185.11 43.16L185.11 49L183.2 49L183.2 39.18L185.04 39.18L185.04 40.77L185.16 40.77C185.61 39.73 186.58 39.05 188.05 39.05C190.06 39.05 191.4 40.32 191.4 42.75L191.4 49L189.48 49L189.48 42.98C189.48 41.56 188.7 40.7 187.4 40.7ZM202.5 49.21C202.5 51.74 200.57 52.88 198.07 52.88C195.72 52.88 194.41 51.86 193.89 50.66L195.54 49.98C195.88 50.54 196.5 51.34 198.09 51.34C199.54 51.34 200.6 50.68 200.6 49.14L200.6 47.21L200.47 47.21C200.13 47.83 199.43 48.85 197.63 48.85C195.31 48.85 193.53 47.18 193.53 44.05C193.53 40.92 195.27 39.05 197.64 39.05C199.47 39.05 200.15 40.16 200.49 40.77L200.63 40.77L200.63 39.18L202.5 39.18L202.5 49.21ZM136.34 39.18L138.39 39.18L134.83 49L132.78 49L129.21 39.18L131.27 39.18L133.75 46.73L133.85 46.73L136.34 39.18ZM166.5 49L164.59 49L164.59 39.18L166.5 39.18L166.5 49ZM180.63 49L178.72 49L178.72 39.18L180.63 39.18L180.63 49ZM143.95 40.63C142.39 40.63 141.38 41.84 141.31 43.23L146.41 43.23C146.4 41.73 145.43 40.63 143.95 40.63ZM120.23 44.09C120.23 46.06 121.11 47.56 122.82 47.56C124.47 47.56 125.39 46.15 125.39 44.09C125.39 42.03 124.49 40.67 122.82 40.67C121.1 40.67 120.23 42.14 120.23 44.09ZM195.45 44.02C195.45 45.95 196.34 47.26 198.05 47.26C199.7 47.26 200.61 46.05 200.61 44.02C200.61 42.03 199.72 40.67 198.05 40.67C196.33 40.67 195.45 42.14 195.45 44.02Z" fill="#2B2B2B" fill-opacity="1.000000" fill-rule="evenodd"/>
	<path id="Lorem ipsum dolor sit amet, consectetur adipiscing elit. Vitae nulla diam in ac dictum a urna viverra morbi." d="M201.91 81.6C201.91 82.07 201.51 82.45 201.02 82.45C200.53 82.45 200.12 82.07 200.12 81.6C200.12 81.13 200.53 80.75 201.02 80.75C201.51 80.75 201.91 81.13 201.91 81.6ZM198.23 83.81L196.95 83.81C196.82 82.74 195.82 82.11 194.5 82.11C193.05 82.11 192.09 82.88 192.09 83.92C192.09 85.09 193.39 85.52 194.2 85.73L195.31 86.03C196.44 86.33 198.38 86.99 198.38 89.03C198.38 90.8 196.95 92.19 194.43 92.19C192.09 92.19 190.64 90.97 190.51 89.18L191.88 89.18C191.98 90.42 193.13 91 194.43 91C195.95 91 197.1 90.2 197.1 89.01C197.1 87.93 196.07 87.52 194.92 87.2L193.58 86.82C191.88 86.33 190.81 85.45 190.81 83.98C190.81 82.15 192.45 80.94 194.54 80.94C196.65 80.94 198.17 82.17 198.23 83.81ZM59.45 92L53.06 92L53.06 81.09L54.38 81.09L54.38 90.82L59.45 90.82L59.45 92ZM102.03 81.09L103.35 81.09L103.35 92L102.03 92L102.03 81.09ZM157.51 86.52C157.51 89.93 155.64 92 152.31 92L148.95 92L148.95 81.09L152.46 81.09C155.64 81.09 157.51 83.13 157.51 86.52ZM168.5 81.09L169.76 81.09L169.76 92L168.5 92L168.5 81.09ZM215.33 88.9L214.23 92L212.84 92L216.85 81.09L218.21 81.09L222.22 92L220.84 92L219.74 88.9L215.33 88.9ZM205.75 83.81L207.5 83.81L207.5 84.88L205.75 84.88L205.75 89.65C205.75 90.72 206.28 90.89 206.83 90.89C207.11 90.89 207.28 90.85 207.39 90.82L207.65 91.95C207.47 92.02 207.18 92.1 206.71 92.1C205.64 92.1 204.49 91.42 204.49 89.99L204.49 84.88L203.26 84.88L203.26 83.81L204.49 83.81L204.49 81.85L205.75 81.85L205.75 83.81ZM247.34 83.81L249.09 83.81L249.09 84.88L247.34 84.88L247.34 89.65C247.34 90.72 247.87 90.89 248.42 90.89C248.7 90.89 248.87 90.85 248.98 90.82L249.24 91.95C249.07 92.02 248.77 92.1 248.3 92.1C247.23 92.1 246.08 91.42 246.08 89.99L246.08 84.88L244.85 84.88L244.85 83.81L246.08 83.81L246.08 81.85L247.34 81.85L247.34 83.81ZM150.26 82.26L150.26 90.82L152.23 90.82C154.93 90.82 156.23 89.18 156.23 86.52C156.23 83.88 154.93 82.26 152.37 82.26L150.26 82.26ZM217.49 82.81L215.74 87.73L219.32 87.73L217.57 82.81L217.49 82.81ZM71.53 92L70.28 92L70.28 83.81L71.49 83.81L71.49 85.05L71.58 85.05C71.88 84.24 72.73 83.69 73.71 83.69C73.9 83.69 74.23 83.7 74.37 83.71L74.37 84.99C74.28 84.96 73.94 84.9 73.6 84.9C72.41 84.9 71.53 85.71 71.53 86.82L71.53 92ZM182.27 92L181.01 92L181.01 83.81L182.23 83.81L182.23 85.05L182.31 85.05C182.61 84.24 183.46 83.69 184.44 83.69C184.63 83.69 184.96 83.7 185.1 83.71L185.1 84.99C185.02 84.96 184.67 84.9 184.34 84.9C183.14 84.9 182.27 85.71 182.27 86.82L182.27 92ZM68.36 87.95C68.36 90.48 66.87 92.17 64.65 92.17C62.44 92.17 60.95 90.48 60.95 87.95C60.95 85.39 62.44 83.71 64.65 83.71C66.87 83.71 68.36 85.39 68.36 87.95ZM82.55 90.1C82.17 91.34 80.95 92.17 79.29 92.17C76.93 92.17 75.48 90.48 75.48 87.97C75.48 85.45 76.95 83.71 79.16 83.71C80.87 83.71 82.68 84.75 82.68 87.8L82.68 88.33L76.74 88.33C76.8 90.08 77.82 91.04 79.29 91.04C80.28 91.04 81.02 90.61 81.34 89.76L82.55 90.1ZM85.85 92L84.6 92L84.6 83.81L85.81 83.81L85.81 85.09L85.92 85.09C86.26 84.22 87.05 83.71 88.11 83.71C89.19 83.71 89.9 84.22 90.31 85.09L90.39 85.09C90.81 84.25 91.67 83.71 92.84 83.71C94.3 83.71 95.34 84.6 95.34 86.52L95.34 92L94.08 92L94.08 86.52C94.08 85.31 93.31 84.84 92.42 84.84C91.27 84.84 90.61 85.61 90.61 86.67L90.61 92L89.33 92L89.33 86.39C89.33 85.46 88.66 84.84 87.71 84.84C86.73 84.84 85.85 85.68 85.85 86.88L85.85 92ZM107.07 95.06L105.82 95.06L105.82 83.81L107.03 83.81L107.03 85.11L107.18 85.11C107.46 84.69 107.95 83.71 109.55 83.71C111.62 83.71 113.04 85.35 113.04 87.93C113.04 90.53 111.62 92.17 109.57 92.17C107.99 92.17 107.46 91.19 107.18 90.74L107.07 90.74L107.07 95.06ZM117.86 83.71C119.48 83.71 120.36 84.48 120.76 85.64L119.62 85.96C119.41 85.4 118.95 84.79 117.86 84.79C116.86 84.79 116.11 85.3 116.11 86.01C116.11 86.64 116.55 86.96 117.52 87.2L118.73 87.5C120.19 87.86 120.9 88.57 120.9 89.71C120.9 91.13 119.61 92.17 117.71 92.17C116.04 92.17 114.89 91.42 114.6 90.04L115.79 89.74C116.01 90.61 116.66 91.06 117.69 91.06C118.86 91.06 119.61 90.48 119.61 89.78C119.61 89.22 119.21 88.82 118.39 88.63L117.03 88.31C115.52 87.96 114.85 87.2 114.85 86.07C114.85 84.69 116.13 83.71 117.86 83.71ZM132.77 92L131.51 92L131.51 83.81L132.73 83.81L132.73 85.09L132.84 85.09C133.18 84.22 133.96 83.71 135.03 83.71C136.11 83.71 136.82 84.22 137.22 85.09L137.31 85.09C137.73 84.25 138.59 83.71 139.76 83.71C141.22 83.71 142.25 84.6 142.25 86.52L142.25 92L141 92L141 86.52C141 85.31 140.23 84.84 139.33 84.84C138.18 84.84 137.52 85.61 137.52 86.67L137.52 92L136.25 92L136.25 86.39C136.25 85.46 135.58 84.84 134.63 84.84C133.65 84.84 132.77 85.68 132.77 86.88L132.77 92ZM166.59 87.95C166.59 90.48 165.1 92.17 162.88 92.17C160.66 92.17 159.17 90.48 159.17 87.95C159.17 85.39 160.66 83.71 162.88 83.71C165.1 83.71 166.59 85.39 166.59 87.95ZM179.09 87.95C179.09 90.48 177.6 92.17 175.39 92.17C173.17 92.17 171.68 90.48 171.68 87.95C171.68 85.39 173.17 83.71 175.39 83.71C177.6 83.71 179.09 85.39 179.09 87.95ZM225.01 92L223.75 92L223.75 83.81L224.97 83.81L224.97 85.09L225.07 85.09C225.41 84.22 226.2 83.71 227.27 83.71C228.34 83.71 229.06 84.22 229.46 85.09L229.55 85.09C229.97 84.25 230.83 83.71 232 83.71C233.46 83.71 234.49 84.6 234.49 86.52L234.49 92L233.23 92L233.23 86.52C233.23 85.31 232.47 84.84 231.57 84.84C230.42 84.84 229.76 85.61 229.76 86.67L229.76 92L228.48 92L228.48 86.39C228.48 85.46 227.82 84.84 226.86 84.84C225.88 84.84 225.01 85.68 225.01 86.88L225.01 92ZM243.48 90.1C243.1 91.34 241.89 92.17 240.22 92.17C237.86 92.17 236.41 90.48 236.41 87.97C236.41 85.45 237.88 83.71 240.09 83.71C241.8 83.71 243.61 84.75 243.61 87.8L243.61 88.33L237.67 88.33C237.73 90.08 238.75 91.04 240.22 91.04C241.21 91.04 241.95 90.61 242.27 89.76L243.48 90.1ZM125.85 90.89C126.78 90.89 127.96 90.18 127.96 88.65L127.96 83.81L129.21 83.81L129.21 92L127.96 92L127.96 90.61L127.87 90.61C127.49 91.44 126.68 92.1 125.44 92.1C123.91 92.1 122.8 91.1 122.8 89.01L122.8 83.81L124.06 83.81L124.06 88.93C124.06 90.12 124.8 90.89 125.85 90.89ZM201.63 92L200.38 92L200.38 83.81L201.63 83.81L201.63 92ZM62.2 87.95C62.2 89.59 62.97 91.04 64.65 91.04C66.34 91.04 67.1 89.59 67.1 87.95C67.1 86.31 66.34 84.84 64.65 84.84C62.97 84.84 62.2 86.31 62.2 87.95ZM79.16 84.84C77.72 84.84 76.82 85.97 76.74 87.25L81.4 87.25C81.4 85.86 80.53 84.84 79.16 84.84ZM109.4 84.84C107.87 84.84 107.06 86.07 107.06 87.9C107.06 89.76 107.89 91.04 109.4 91.04C110.97 91.04 111.78 89.65 111.78 87.9C111.78 86.18 111 84.84 109.4 84.84ZM160.43 87.95C160.43 89.59 161.2 91.04 162.88 91.04C164.56 91.04 165.33 89.59 165.33 87.95C165.33 86.31 164.56 84.84 162.88 84.84C161.2 84.84 160.43 86.31 160.43 87.95ZM172.94 87.95C172.94 89.59 173.7 91.04 175.39 91.04C177.07 91.04 177.84 89.59 177.84 87.95C177.84 86.31 177.07 84.84 175.39 84.84C173.7 84.84 172.94 86.31 172.94 87.95ZM240.09 84.84C238.66 84.84 237.75 85.97 237.67 87.25L242.33 87.25C242.33 85.86 241.46 84.84 240.09 84.84ZM251.49 90.5L252.86 90.5L252.77 91.08C252.59 92.29 252.05 93.93 251.79 94.66L250.83 94.66C250.97 93.98 251.28 92.54 251.43 91.1L251.49 90.5ZM148.97 105.6C148.97 106.07 148.56 106.45 148.07 106.45C147.58 106.45 147.17 106.07 147.17 105.6C147.17 105.13 147.58 104.75 148.07 104.75C148.56 104.75 148.97 105.13 148.97 105.6ZM161.66 105.6C161.66 106.07 161.26 106.45 160.77 106.45C160.28 106.45 159.87 106.07 159.87 105.6C159.87 105.13 160.28 104.75 160.77 104.75C161.26 104.75 161.66 105.13 161.66 105.6ZM181.44 105.6C181.44 106.07 181.03 106.45 180.54 106.45C180.05 106.45 179.65 106.07 179.65 105.6C179.65 105.13 180.05 104.75 180.54 104.75C181.03 104.75 181.44 105.13 181.44 105.6ZM219.66 105.6C219.66 106.07 219.26 106.45 218.77 106.45C218.28 106.45 217.87 106.07 217.87 105.6C217.87 105.13 218.28 104.75 218.77 104.75C219.26 104.75 219.66 105.13 219.66 105.6ZM247.17 105.6C247.17 106.07 246.77 106.45 246.27 106.45C245.78 106.45 245.38 106.07 245.38 105.6C245.38 105.13 245.78 104.75 246.27 104.75C246.77 104.75 247.17 105.13 247.17 105.6ZM40.79 104.94C42.99 104.94 44.77 106.26 45.18 108.5L43.86 108.5C43.54 106.98 42.24 106.17 40.79 106.17C38.81 106.17 37.25 107.71 37.25 110.54C37.25 113.37 38.81 114.91 40.79 114.91C42.24 114.91 43.54 114.1 43.86 112.59L45.18 112.59C44.77 114.82 42.99 116.15 40.79 116.15C38 116.15 35.97 113.99 35.97 110.54C35.97 107.09 38 104.94 40.79 104.94ZM129.7 112.9L128.6 116L127.21 116L131.22 105.09L132.58 105.09L136.59 116L135.2 116L134.1 112.9L129.7 112.9ZM143.59 114.74C143.32 115.19 142.78 116.17 141.21 116.17C139.16 116.17 137.74 114.53 137.74 111.93C137.74 109.35 139.16 107.71 141.23 107.71C142.83 107.71 143.32 108.69 143.59 109.11L143.7 109.11L143.7 105.09L144.96 105.09L144.96 116L143.74 116L143.74 114.74L143.59 114.74ZM212.44 116L205.77 116L205.77 105.09L212.36 105.09L212.36 106.26L207.09 106.26L207.09 109.95L212.01 109.95L212.01 111.12L207.09 111.12L207.09 114.82L212.44 114.82L212.44 116ZM214.57 105.09L215.82 105.09L215.82 116L214.57 116L214.57 105.09ZM234.73 105.09L236.11 105.09L239.35 114.27L239.48 114.27L242.72 105.09L244.1 105.09L240.1 116L238.73 116L234.73 105.09ZM91.63 107.81L93.38 107.81L93.38 108.88L91.63 108.88L91.63 113.65C91.63 114.72 92.16 114.89 92.71 114.89C92.99 114.89 93.16 114.85 93.27 114.82L93.53 115.95C93.35 116.02 93.06 116.1 92.59 116.1C91.52 116.1 90.37 115.42 90.37 113.99L90.37 108.88L89.14 108.88L89.14 107.81L90.37 107.81L90.37 105.86L91.63 105.86L91.63 107.81ZM105.82 107.81L107.57 107.81L107.57 108.88L105.82 108.88L105.82 113.65C105.82 114.72 106.35 114.89 106.9 114.89C107.18 114.89 107.35 114.85 107.46 114.82L107.72 115.95C107.55 116.02 107.25 116.1 106.78 116.1C105.71 116.1 104.56 115.42 104.56 113.99L104.56 108.88L103.33 108.88L103.33 107.81L104.56 107.81L104.56 105.86L105.82 105.86L105.82 107.81ZM223.5 107.81L225.24 107.81L225.24 108.88L223.5 108.88L223.5 113.65C223.5 114.72 224.03 114.89 224.58 114.89C224.86 114.89 225.03 114.85 225.14 114.82L225.39 115.95C225.22 116.02 224.93 116.1 224.46 116.1C223.39 116.1 222.24 115.42 222.24 113.99L222.24 108.88L221 108.88L221 107.81L222.24 107.81L222.24 105.86L223.5 105.86L223.5 107.81ZM251.01 107.81L252.75 107.81L252.75 108.88L251.01 108.88L251.01 113.65C251.01 114.72 251.54 114.89 252.09 114.89C252.37 114.89 252.54 114.85 252.65 114.82L252.9 115.95C252.73 116.02 252.43 116.1 251.96 116.1C250.9 116.1 249.75 115.42 249.75 113.99L249.75 108.88L248.51 108.88L248.51 107.81L249.75 107.81L249.75 105.86L251.01 105.86L251.01 107.81ZM131.86 106.81L130.11 111.73L133.69 111.73L131.94 106.81L131.86 106.81ZM119.43 116L118.18 116L118.18 107.81L119.39 107.81L119.39 109.05L119.48 109.05C119.78 108.24 120.63 107.69 121.61 107.69C121.79 107.69 122.12 107.7 122.27 107.71L122.27 108.99C122.18 108.96 121.84 108.9 121.5 108.9C120.31 108.9 119.43 109.71 119.43 110.82L119.43 116ZM54.17 111.95C54.17 114.48 52.68 116.17 50.46 116.17C48.25 116.17 46.75 114.48 46.75 111.95C46.75 109.39 48.25 107.71 50.46 107.71C52.68 107.71 54.17 109.39 54.17 111.95ZM59.44 108.84C58.23 108.84 57.34 109.65 57.34 111.07L57.34 116L56.09 116L56.09 107.81L57.3 107.81L57.3 109.09L57.41 109.09C57.79 108.26 58.56 107.71 59.8 107.71C61.45 107.71 62.57 108.71 62.57 110.8L62.57 116L61.31 116L61.31 110.88C61.31 109.6 60.6 108.84 59.44 108.84ZM67.76 107.71C69.39 107.71 70.27 108.48 70.66 109.65L69.53 109.96C69.32 109.4 68.86 108.79 67.76 108.79C66.76 108.79 66.02 109.3 66.02 110.01C66.02 110.64 66.46 110.96 67.42 111.2L68.64 111.5C70.1 111.86 70.81 112.58 70.81 113.71C70.81 115.13 69.52 116.17 67.62 116.17C65.94 116.17 64.8 115.42 64.5 114.04L65.7 113.74C65.92 114.61 66.57 115.06 67.59 115.06C68.77 115.06 69.51 114.48 69.51 113.78C69.51 113.22 69.12 112.82 68.3 112.63L66.94 112.31C65.43 111.96 64.76 111.2 64.76 110.07C64.76 108.69 66.04 107.71 67.76 107.71ZM79.4 114.1C79.01 115.34 77.8 116.17 76.14 116.17C73.77 116.17 72.32 114.48 72.32 111.97C72.32 109.45 73.8 107.71 76.01 107.71C77.71 107.71 79.53 108.75 79.53 111.8L79.53 112.33L73.59 112.33C73.64 114.08 74.66 115.04 76.14 115.04C77.12 115.04 77.86 114.61 78.18 113.76L79.4 114.1ZM87.98 113.61C87.77 115.06 86.58 116.17 84.77 116.17C82.46 116.17 81.06 114.4 81.06 111.95C81.06 109.45 82.53 107.71 84.75 107.71C86.47 107.71 87.77 108.73 87.98 110.26L86.73 110.26C86.54 109.52 85.87 108.84 84.77 108.84C83.3 108.84 82.32 110.05 82.32 111.9C82.32 113.8 83.28 115.04 84.77 115.04C85.75 115.04 86.49 114.51 86.73 113.61L87.98 113.61ZM101.96 114.1C101.58 115.34 100.37 116.17 98.7 116.17C96.34 116.17 94.89 114.48 94.89 111.97C94.89 109.45 96.36 107.71 98.57 107.71C100.28 107.71 102.09 108.75 102.09 111.8L102.09 112.33L96.15 112.33C96.21 114.08 97.23 115.04 98.7 115.04C99.69 115.04 100.43 114.61 100.75 113.76L101.96 114.1ZM152.25 119.06L150.99 119.06L150.99 107.81L152.2 107.81L152.2 109.11L152.36 109.11C152.63 108.69 153.12 107.71 154.72 107.71C156.79 107.71 158.21 109.35 158.21 111.93C158.21 114.53 156.79 116.17 154.74 116.17C153.16 116.17 152.63 115.19 152.36 114.74L152.25 114.74L152.25 119.06ZM166.58 107.71C168.21 107.71 169.09 108.48 169.49 109.65L168.35 109.96C168.14 109.4 167.68 108.79 166.58 108.79C165.58 108.79 164.84 109.3 164.84 110.01C164.84 110.64 165.28 110.96 166.24 111.2L167.46 111.5C168.92 111.86 169.63 112.58 169.63 113.71C169.63 115.13 168.34 116.17 166.44 116.17C164.76 116.17 163.62 115.42 163.33 114.04L164.52 113.74C164.74 114.61 165.39 115.06 166.42 115.06C167.59 115.06 168.34 114.48 168.34 113.78C168.34 113.22 167.94 112.82 167.12 112.63L165.76 112.31C164.25 111.96 163.58 111.2 163.58 110.07C163.58 108.69 164.86 107.71 166.58 107.71ZM178.07 113.61C177.86 115.06 176.66 116.17 174.85 116.17C172.55 116.17 171.14 114.4 171.14 111.95C171.14 109.45 172.62 107.71 174.83 107.71C176.56 107.71 177.86 108.73 178.07 110.26L176.81 110.26C176.62 109.52 175.96 108.84 174.85 108.84C173.38 108.84 172.4 110.05 172.4 111.9C172.4 113.8 173.36 115.04 174.85 115.04C175.83 115.04 176.58 114.51 176.81 113.61L178.07 113.61ZM186.81 108.84C185.6 108.84 184.72 109.65 184.72 111.07L184.72 116L183.46 116L183.46 107.81L184.68 107.81L184.68 109.09L184.78 109.09C185.17 108.26 185.93 107.71 187.17 107.71C188.83 107.71 189.94 108.71 189.94 110.8L189.94 116L188.68 116L188.68 110.88C188.68 109.6 187.97 108.84 186.81 108.84ZM199.08 116.23C199.08 118.34 197.5 119.23 195.54 119.23C193.71 119.23 192.71 118.45 192.2 117.59L193.2 116.89C193.54 117.34 194.06 118.13 195.54 118.13C196.86 118.13 197.82 117.51 197.82 116.15L197.82 114.48L197.71 114.48C197.44 114.93 196.93 115.87 195.33 115.87C193.35 115.87 191.85 114.42 191.85 111.86C191.85 109.35 193.28 107.71 195.35 107.71C196.95 107.71 197.46 108.69 197.74 109.11L197.86 109.11L197.86 107.81L199.08 107.81L199.08 116.23ZM259.48 114.89C259.23 115.42 258.48 116.19 257.06 116.19C255.5 116.19 254.26 115.27 254.26 113.67C254.26 111.8 255.92 111.46 257.44 111.26C258.93 111.07 259.55 111.13 259.55 110.52L259.55 110.48C259.55 109.43 258.98 108.81 257.82 108.81C256.62 108.81 255.97 109.45 255.69 110.05L254.5 109.62C255.14 108.13 256.54 107.71 257.78 107.71C258.82 107.71 260.81 108 260.81 110.6L260.81 116L259.55 116L259.55 114.89L259.48 114.89ZM269.8 114.1C269.41 115.34 268.2 116.17 266.54 116.17C264.17 116.17 262.72 114.48 262.72 111.97C262.72 109.45 264.19 107.71 266.41 107.71C268.11 107.71 269.92 108.75 269.92 111.8L269.92 112.33L263.98 112.33C264.04 114.08 265.06 115.04 266.54 115.04C267.52 115.04 268.26 114.61 268.58 113.76L269.8 114.1ZM112.51 114.89C113.45 114.89 114.62 114.18 114.62 112.65L114.62 107.81L115.87 107.81L115.87 116L114.62 116L114.62 114.61L114.53 114.61C114.15 115.44 113.34 116.1 112.11 116.1C110.57 116.1 109.46 115.1 109.46 113.01L109.46 107.81L110.72 107.81L110.72 112.93C110.72 114.12 111.47 114.89 112.51 114.89ZM148.69 116L147.43 116L147.43 107.81L148.69 107.81L148.69 116ZM161.39 116L160.13 116L160.13 107.81L161.39 107.81L161.39 116ZM181.16 116L179.9 116L179.9 107.81L181.16 107.81L181.16 116ZM219.38 116L218.13 116L218.13 107.81L219.38 107.81L219.38 116ZM246.89 116L245.63 116L245.63 107.81L246.89 107.81L246.89 116ZM48.01 111.95C48.01 113.59 48.78 115.04 50.46 115.04C52.15 115.04 52.91 113.59 52.91 111.95C52.91 110.31 52.15 108.84 50.46 108.84C48.78 108.84 48.01 110.31 48.01 111.95ZM76.01 108.84C74.57 108.84 73.67 109.97 73.59 111.25L78.25 111.25C78.25 109.86 77.37 108.84 76.01 108.84ZM98.57 108.84C97.14 108.84 96.23 109.97 96.15 111.25L100.81 111.25C100.81 109.86 99.94 108.84 98.57 108.84ZM139 111.9C139 113.65 139.8 115.04 141.38 115.04C142.89 115.04 143.72 113.76 143.72 111.9C143.72 110.07 142.91 108.84 141.38 108.84C139.78 108.84 139 110.18 139 111.9ZM154.57 108.84C153.04 108.84 152.23 110.07 152.23 111.9C152.23 113.76 153.06 115.04 154.57 115.04C156.14 115.04 156.95 113.65 156.95 111.9C156.95 110.18 156.17 108.84 154.57 108.84ZM193.11 111.84C193.11 113.55 193.92 114.74 195.5 114.74C197.01 114.74 197.84 113.65 197.84 111.84C197.84 110.07 197.03 108.84 195.5 108.84C193.9 108.84 193.11 110.18 193.11 111.84ZM266.41 108.84C264.97 108.84 264.07 109.97 263.98 111.25L268.65 111.25C268.65 109.86 267.77 108.84 266.41 108.84ZM255.52 113.74C255.52 114.61 256.25 115.06 257.25 115.06C258.74 115.06 259.55 114.06 259.55 113.03L259.55 111.88C259.33 112.14 257.91 112.29 257.38 112.35C256.39 112.48 255.52 112.78 255.52 113.74ZM229.01 115.12C229.01 115.65 228.58 116.08 228.06 116.08C227.53 116.08 227.1 115.65 227.1 115.12C227.1 114.59 227.53 114.16 228.06 114.16C228.58 114.16 229.01 114.59 229.01 115.12ZM95.15 129.6C95.15 130.07 94.75 130.45 94.26 130.45C93.77 130.45 93.36 130.07 93.36 129.6C93.36 129.13 93.77 128.75 94.26 128.75C94.75 128.75 95.15 129.13 95.15 129.6ZM174.91 129.6C174.91 130.07 174.5 130.45 174.01 130.45C173.52 130.45 173.12 130.07 173.12 129.6C173.12 129.13 173.52 128.75 174.01 128.75C174.5 128.75 174.91 129.13 174.91 129.6ZM50.56 129.09L51.86 129.09L51.86 140L50.58 140L44.64 131.43L44.53 131.43L44.53 140L43.21 140L43.21 129.09L44.49 129.09L50.45 137.67L50.56 137.67L50.56 129.09ZM63.04 129.09L64.3 129.09L64.3 140L63.04 140L63.04 129.09ZM66.6 129.09L67.86 129.09L67.86 140L66.6 140L66.6 129.09ZM91.58 134.52C91.58 137.93 89.7 140 86.38 140L83.01 140L83.01 129.09L86.53 129.09C89.7 129.09 91.58 131.13 91.58 134.52ZM123.07 129.09L124.39 129.09L124.39 140L123.07 140L123.07 129.09ZM141.57 136.9L140.48 140L139.09 140L143.1 129.09L144.46 129.09L148.47 140L147.08 140L145.98 136.9L141.57 136.9ZM171.33 134.52C171.33 137.93 169.45 140 166.13 140L162.76 140L162.76 129.09L166.28 129.09C169.45 129.09 171.33 131.13 171.33 134.52ZM218.45 136.9L217.35 140L215.97 140L219.97 129.09L221.33 129.09L225.34 140L223.96 140L222.86 136.9L218.45 136.9ZM238.42 136.2L238.42 129.09L239.74 129.09L239.74 136.31C239.74 138.55 238.07 140.19 235.5 140.19C232.93 140.19 231.26 138.55 231.26 136.31L231.26 129.09L232.58 129.09L232.58 136.2C232.58 137.8 233.68 138.95 235.5 138.95C237.33 138.95 238.42 137.8 238.42 136.2ZM187.12 131.81L188.86 131.81L188.86 132.88L187.12 132.88L187.12 137.65C187.12 138.72 187.65 138.89 188.2 138.89C188.48 138.89 188.65 138.85 188.76 138.82L189.01 139.95C188.84 140.02 188.54 140.1 188.08 140.1C187.01 140.1 185.86 139.42 185.86 137.99L185.86 132.88L184.62 132.88L184.62 131.81L185.86 131.81L185.86 129.86L187.12 129.86L187.12 131.81ZM84.33 130.26L84.33 138.82L86.29 138.82C89 138.82 90.3 137.18 90.3 134.52C90.3 131.88 89 130.26 86.44 130.26L84.33 130.26ZM164.08 130.26L164.08 138.82L166.04 138.82C168.75 138.82 170.05 137.18 170.05 134.52C170.05 131.88 168.75 130.26 166.19 130.26L164.08 130.26ZM143.73 130.81L141.99 135.73L145.57 135.73L143.82 130.81L143.73 130.81ZM220.61 130.81L218.86 135.73L222.44 135.73L220.69 130.81L220.61 130.81ZM243.47 140L242.21 140L242.21 131.81L243.43 131.81L243.43 133.05L243.51 133.05C243.81 132.24 244.66 131.69 245.65 131.69C245.83 131.69 246.16 131.7 246.3 131.71L246.3 132.99C246.22 132.96 245.87 132.9 245.54 132.9C244.35 132.9 243.47 133.71 243.47 134.82L243.47 140ZM75 138.89C74.74 139.42 74 140.19 72.57 140.19C71.01 140.19 69.78 139.27 69.78 137.67C69.78 135.8 71.44 135.46 72.95 135.26C74.45 135.07 75.06 135.13 75.06 134.52L75.06 134.48C75.06 133.43 74.49 132.81 73.34 132.81C72.14 132.81 71.48 133.45 71.2 134.05L70.01 133.62C70.65 132.13 72.06 131.71 73.29 131.71C74.34 131.71 76.32 132 76.32 134.6L76.32 140L75.06 140L75.06 138.89L75 138.89ZM102.02 138.89C101.76 139.42 101.01 140.19 99.59 140.19C98.03 140.19 96.79 139.27 96.79 137.67C96.79 135.8 98.45 135.46 99.97 135.26C101.46 135.07 102.08 135.13 102.08 134.52L102.08 134.48C102.08 133.43 101.51 132.81 100.35 132.81C99.16 132.81 98.5 133.45 98.22 134.05L97.03 133.62C97.67 132.13 99.08 131.71 100.31 131.71C101.36 131.71 103.34 132 103.34 134.6L103.34 140L102.08 140L102.08 138.89L102.02 138.89ZM106.89 140L105.64 140L105.64 131.81L106.85 131.81L106.85 133.09L106.96 133.09C107.3 132.22 108.09 131.71 109.15 131.71C110.23 131.71 110.94 132.22 111.35 133.09L111.43 133.09C111.86 132.25 112.71 131.71 113.88 131.71C115.34 131.71 116.38 132.6 116.38 134.52L116.38 140L115.12 140L115.12 134.52C115.12 133.31 114.35 132.84 113.46 132.84C112.31 132.84 111.65 133.61 111.65 134.67L111.65 140L110.37 140L110.37 134.39C110.37 133.46 109.7 132.84 108.75 132.84C107.77 132.84 106.89 133.68 106.89 134.88L106.89 140ZM130.21 132.84C129 132.84 128.12 133.64 128.12 135.07L128.12 140L126.86 140L126.86 131.81L128.07 131.81L128.07 133.09L128.18 133.09C128.57 132.26 129.33 131.71 130.57 131.71C132.22 131.71 133.34 132.71 133.34 134.8L133.34 140L132.08 140L132.08 134.88C132.08 133.6 131.37 132.84 130.21 132.84ZM156.54 137.61C156.33 139.06 155.13 140.17 153.32 140.17C151.02 140.17 149.61 138.4 149.61 135.95C149.61 133.45 151.09 131.71 153.3 131.71C155.03 131.71 156.33 132.73 156.54 134.26L155.28 134.26C155.09 133.52 154.43 132.84 153.32 132.84C151.85 132.84 150.87 134.05 150.87 135.9C150.87 137.8 151.83 139.04 153.32 139.04C154.3 139.04 155.05 138.5 155.28 137.61L156.54 137.61ZM183.47 137.61C183.26 139.06 182.06 140.17 180.26 140.17C177.95 140.17 176.55 138.4 176.55 135.95C176.55 133.45 178.02 131.71 180.23 131.71C181.96 131.71 183.26 132.73 183.47 134.26L182.21 134.26C182.02 133.52 181.36 132.84 180.26 132.84C178.78 132.84 177.81 134.05 177.81 135.9C177.81 137.8 178.76 139.04 180.26 139.04C181.23 139.04 181.98 138.5 182.21 137.61L183.47 137.61ZM200.73 140L199.47 140L199.47 131.81L200.69 131.81L200.69 133.09L200.79 133.09C201.14 132.22 201.92 131.71 202.99 131.71C204.07 131.71 204.78 132.22 205.18 133.09L205.27 133.09C205.69 132.25 206.55 131.71 207.72 131.71C209.18 131.71 210.21 132.6 210.21 134.52L210.21 140L208.95 140L208.95 134.52C208.95 133.31 208.19 132.84 207.29 132.84C206.14 132.84 205.48 133.61 205.48 134.67L205.48 140L204.2 140L204.2 134.39C204.2 133.46 203.54 132.84 202.59 132.84C201.6 132.84 200.73 133.68 200.73 134.88L200.73 140ZM251.14 132.84C249.94 132.84 249.05 133.64 249.05 135.07L249.05 140L247.8 140L247.8 131.81L249.01 131.81L249.01 133.09L249.12 133.09C249.5 132.26 250.27 131.71 251.51 131.71C253.16 131.71 254.27 132.71 254.27 134.8L254.27 140L253.02 140L253.02 134.88C253.02 133.6 252.31 132.84 251.14 132.84ZM261.41 138.89C261.16 139.42 260.41 140.19 258.98 140.19C257.43 140.19 256.19 139.27 256.19 137.67C256.19 135.8 257.85 135.46 259.37 135.26C260.86 135.07 261.47 135.13 261.47 134.52L261.47 134.48C261.47 133.43 260.91 132.81 259.75 132.81C258.55 132.81 257.9 133.45 257.62 134.05L256.42 133.62C257.07 132.13 258.47 131.71 259.71 131.71C260.75 131.71 262.73 132 262.73 134.6L262.73 140L261.47 140L261.47 138.89L261.41 138.89ZM57.38 138.89C58.31 138.89 59.49 138.18 59.49 136.65L59.49 131.81L60.74 131.81L60.74 140L59.49 140L59.49 138.61L59.4 138.61C59.02 139.44 58.21 140.1 56.97 140.1C55.44 140.1 54.33 139.1 54.33 137.01L54.33 131.81L55.59 131.81L55.59 136.93C55.59 138.12 56.33 138.89 57.38 138.89ZM94.88 140L93.62 140L93.62 131.81L94.88 131.81L94.88 140ZM174.63 140L173.37 140L173.37 131.81L174.63 131.81L174.63 140ZM193.81 138.89C194.74 138.89 195.91 138.18 195.91 136.65L195.91 131.81L197.17 131.81L197.17 140L195.91 140L195.91 138.61L195.83 138.61C195.45 139.44 194.64 140.1 193.4 140.1C191.87 140.1 190.76 139.1 190.76 137.01L190.76 131.81L192.01 131.81L192.01 136.93C192.01 138.12 192.76 138.89 193.81 138.89ZM71.04 137.74C71.04 138.61 71.76 139.06 72.76 139.06C74.25 139.06 75.06 138.06 75.06 137.03L75.06 135.88C74.85 136.14 73.42 136.29 72.89 136.35C71.91 136.48 71.04 136.78 71.04 137.74ZM98.05 137.74C98.05 138.61 98.78 139.06 99.78 139.06C101.27 139.06 102.08 138.06 102.08 137.03L102.08 135.88C101.87 136.14 100.44 136.29 99.91 136.35C98.93 136.48 98.05 136.78 98.05 137.74ZM257.45 137.74C257.45 138.61 258.18 139.06 259.18 139.06C260.67 139.06 261.47 138.06 261.47 137.03L261.47 135.88C261.26 136.14 259.83 136.29 259.3 136.35C258.32 136.48 257.45 136.78 257.45 137.74ZM115.96 153.6C115.96 154.07 115.56 154.45 115.07 154.45C114.58 154.45 114.17 154.07 114.17 153.6C114.17 153.13 114.58 152.75 115.07 152.75C115.56 152.75 115.96 153.13 115.96 153.6ZM197.63 153.6C197.63 154.07 197.23 154.45 196.74 154.45C196.25 154.45 195.84 154.07 195.84 153.6C195.84 153.13 196.25 152.75 196.74 152.75C197.23 152.75 197.63 153.13 197.63 153.6ZM103.52 153.09L104.9 153.09L108.14 162.27L108.27 162.27L111.51 153.09L112.89 153.09L108.89 164L107.53 164L103.52 153.09ZM159.09 164L159.09 153.09L160.66 153.09L164.37 162.14L164.5 162.14L168.21 153.09L169.78 153.09L169.78 164L168.55 164L168.55 155.71L168.44 155.71L165.03 164L163.84 164L160.43 155.71L160.32 155.71L160.32 164L159.09 164ZM188.17 164L186.96 164L186.96 153.09L188.21 153.09L188.21 157.11L188.32 157.11C188.6 156.69 189.09 155.71 190.68 155.71C192.75 155.71 194.18 157.35 194.18 159.93C194.18 162.53 192.75 164.17 190.71 164.17C189.13 164.17 188.6 163.19 188.32 162.74L188.17 162.74L188.17 164ZM136.33 164L135.07 164L135.07 155.81L136.29 155.81L136.29 157.05L136.37 157.05C136.67 156.24 137.52 155.69 138.5 155.69C138.69 155.69 139.02 155.7 139.16 155.71L139.16 156.99C139.08 156.96 138.73 156.9 138.4 156.9C137.2 156.9 136.33 157.71 136.33 158.82L136.33 164ZM141.91 164L140.66 164L140.66 155.81L141.87 155.81L141.87 157.05L141.96 157.05C142.25 156.24 143.11 155.69 144.09 155.69C144.27 155.69 144.6 155.7 144.75 155.71L144.75 156.99C144.66 156.96 144.31 156.9 143.98 156.9C142.79 156.9 141.91 157.71 141.91 158.82L141.91 164ZM182.46 164L181.2 164L181.2 155.81L182.42 155.81L182.42 157.05L182.5 157.05C182.8 156.24 183.65 155.69 184.63 155.69C184.82 155.69 185.15 155.7 185.29 155.71L185.29 156.99C185.21 156.96 184.86 156.9 184.53 156.9C183.33 156.9 182.46 157.71 182.46 158.82L182.46 164ZM133.03 162.1C132.64 163.34 131.43 164.17 129.77 164.17C127.4 164.17 125.95 162.48 125.95 159.97C125.95 157.45 127.42 155.71 129.64 155.71C131.34 155.71 133.16 156.75 133.16 159.8L133.16 160.33L127.22 160.33C127.27 162.08 128.29 163.04 129.77 163.04C130.75 163.04 131.49 162.61 131.81 161.76L133.03 162.1ZM151.08 162.89C150.82 163.42 150.07 164.19 148.65 164.19C147.09 164.19 145.85 163.27 145.85 161.67C145.85 159.8 147.51 159.46 149.03 159.26C150.52 159.07 151.14 159.13 151.14 158.52L151.14 158.48C151.14 157.43 150.57 156.81 149.41 156.81C148.22 156.81 147.56 157.45 147.28 158.05L146.09 157.62C146.73 156.13 148.13 155.71 149.37 155.71C150.42 155.71 152.4 156 152.4 158.6L152.4 164L151.14 164L151.14 162.89L151.08 162.89ZM179.28 159.95C179.28 162.48 177.79 164.17 175.58 164.17C173.36 164.17 171.87 162.48 171.87 159.95C171.87 157.39 173.36 155.71 175.58 155.71C177.79 155.71 179.28 157.39 179.28 159.95ZM115.68 164L114.43 164L114.43 155.81L115.68 155.81L115.68 164ZM123.31 155.81L124.68 155.81L121.65 164L120.37 164L117.35 155.81L118.71 155.81L120.97 162.33L121.05 162.33L123.31 155.81ZM197.35 164L196.1 164L196.1 155.81L197.35 155.81L197.35 164ZM129.64 156.84C128.2 156.84 127.3 157.97 127.22 159.25L131.88 159.25C131.88 157.86 131 156.84 129.64 156.84ZM173.13 159.95C173.13 161.59 173.89 163.04 175.58 163.04C177.26 163.04 178.03 161.59 178.03 159.95C178.03 158.31 177.26 156.84 175.58 156.84C173.89 156.84 173.13 158.31 173.13 159.95ZM190.53 156.84C189 156.84 188.19 158.07 188.19 159.9C188.19 161.76 189.02 163.04 190.53 163.04C192.11 163.04 192.92 161.65 192.92 159.9C192.92 158.18 192.13 156.84 190.53 156.84ZM147.11 161.74C147.11 162.61 147.84 163.06 148.84 163.06C150.33 163.06 151.14 162.06 151.14 161.03L151.14 159.88C150.92 160.14 149.5 160.29 148.97 160.35C147.98 160.48 147.11 160.78 147.11 161.74ZM201.53 163.12C201.53 163.65 201.1 164.08 200.57 164.08C200.04 164.08 199.61 163.65 199.61 163.12C199.61 162.59 200.04 162.16 200.57 162.16C201.1 162.16 201.53 162.59 201.53 163.12Z" fill="#767676" fill-opacity="1.000000" fill-rule="evenodd"/>
	<path id="ORDER NOW" d="M119.32 192.13Q119.77 191.18 119.77 189.92L119.77 189.54Q119.77 188.29 119.31 187.33Q118.97 186.61 118.41 186.14Q118.23 185.98 118.03 185.86Q117.86 185.75 117.67 185.67Q116.98 185.35 116.13 185.35Q115.29 185.35 114.59 185.67Q114.41 185.75 114.24 185.86Q114.03 185.98 113.85 186.14Q113.3 186.61 112.95 187.33Q112.5 188.29 112.5 189.55L112.5 189.97Q112.51 191.2 112.96 192.15Q113.3 192.84 113.83 193.3Q114.03 193.47 114.25 193.6Q114.44 193.72 114.63 193.81Q115.32 194.11 116.14 194.11Q117 194.11 117.71 193.78Q117.88 193.7 118.05 193.6Q118.28 193.45 118.48 193.27Q119 192.81 119.32 192.13ZM168.93 192.13Q169.38 191.18 169.38 189.92L169.38 189.54Q169.38 188.29 168.92 187.33Q168.58 186.61 168.02 186.14Q167.84 185.98 167.64 185.86Q167.47 185.75 167.29 185.67Q166.59 185.35 165.74 185.35Q164.9 185.35 164.2 185.67Q164.02 185.75 163.85 185.86Q163.64 185.98 163.47 186.14Q162.91 186.61 162.56 187.33Q162.11 188.29 162.11 189.55L162.11 189.97Q162.12 191.2 162.57 192.15Q162.91 192.84 163.44 193.3Q163.64 193.47 163.86 193.6Q164.05 193.72 164.25 193.81Q164.93 194.11 165.76 194.11Q166.62 194.11 167.32 193.78Q167.49 193.7 167.66 193.6Q167.89 193.45 168.09 193.27Q168.61 192.81 168.93 192.13ZM122.8 190.87L124.2 190.87L125.8 194L127.69 194L127.69 193.91L125.84 190.43Q126.61 190.08 126.99 189.5Q127.36 188.92 127.36 188.04Q127.36 187.18 126.97 186.6Q126.79 186.34 126.54 186.14Q125.72 185.46 124.21 185.46L121.04 185.46L121.04 194L122.8 194L122.8 190.87ZM128.7 185.46L128.7 194L131.34 194Q132.27 193.99 133.03 193.64Q133.2 193.57 133.35 193.48Q133.74 193.26 134.05 192.96Q134.46 192.57 134.73 192.04Q135.22 191.12 135.22 189.93L135.22 189.54Q135.22 188.38 134.75 187.47Q134.74 187.44 134.72 187.41Q134.42 186.84 133.96 186.43Q133.68 186.17 133.34 185.97Q133.21 185.9 133.07 185.83Q132.28 185.46 131.33 185.46L128.7 185.46ZM138.26 190.3L141.63 190.3L141.63 188.92L138.26 188.92L138.26 186.89L142.21 186.89L142.21 185.46L136.5 185.46L136.5 194L142.22 194L142.22 192.58L138.26 192.58L138.26 190.3ZM145.01 190.87L146.41 190.87L148.01 194L149.89 194L149.89 193.91L148.05 190.43Q148.82 190.08 149.19 189.5Q149.57 188.92 149.57 188.04Q149.57 187.18 149.17 186.6Q149 186.34 148.75 186.14Q147.93 185.46 146.42 185.46L143.25 185.46L143.25 194L145.01 194L145.01 190.87ZM159.08 194L160.83 194L160.83 185.46L159.08 185.46L159.08 191.09L155.65 185.46L153.89 185.46L153.89 194L155.65 194L155.65 188.38L159.08 194ZM178.45 185.46L177.3 191.53L175.9 185.46L174.41 185.46L173 191.52L171.85 185.46L170.1 185.46L171.99 194L173.76 194L175.15 188.29L176.54 194L178.31 194L180.2 185.46L178.45 185.46ZM117.5 187.5Q117.98 188.19 117.98 189.54L117.98 189.95Q117.98 191.28 117.5 191.98Q117.29 192.28 117 192.46Q116.64 192.67 116.14 192.67Q115.65 192.67 115.28 192.46Q114.98 192.28 114.76 191.95Q114.28 191.23 114.28 189.92L114.28 189.51Q114.29 188.18 114.77 187.49Q114.98 187.19 115.27 187.02Q115.64 186.8 116.13 186.8Q116.63 186.8 117 187.02Q117.29 187.19 117.5 187.5ZM167.11 187.5Q167.6 188.19 167.6 189.54L167.6 189.95Q167.59 191.28 167.11 191.98Q166.9 192.28 166.61 192.46Q166.25 192.67 165.76 192.67Q165.26 192.67 164.9 192.46Q164.59 192.28 164.37 191.95Q163.89 191.23 163.89 189.92L163.89 189.51Q163.9 188.18 164.38 187.49Q164.59 187.19 164.88 187.02Q165.25 186.8 165.74 186.8Q166.24 186.8 166.61 187.02Q166.9 187.19 167.11 187.5ZM124.22 189.45L122.8 189.45L122.8 186.89L124.21 186.89Q124.92 186.89 125.26 187.23Q125.32 187.29 125.36 187.35Q125.61 187.67 125.61 188.18Q125.61 188.64 125.39 188.94Q125.33 189.03 125.24 189.11Q125.23 189.12 125.23 189.13Q124.86 189.45 124.22 189.45ZM130.46 192.58L130.46 186.89L131.33 186.89Q132.09 186.89 132.59 187.26Q132.76 187.38 132.9 187.56Q133.44 188.23 133.44 189.53L133.44 189.98Q133.43 191.24 132.88 191.91Q132.74 192.09 132.55 192.23Q132.06 192.58 131.31 192.58L130.46 192.58ZM146.42 189.45L145.01 189.45L145.01 186.89L146.42 186.89Q147.13 186.89 147.47 187.23Q147.52 187.29 147.57 187.35Q147.81 187.67 147.81 188.18Q147.81 188.64 147.6 188.94Q147.53 189.03 147.45 189.11Q147.44 189.12 147.43 189.13Q147.07 189.45 146.42 189.45Z" fill="#FFB400" fill-opacity="1.000000" fill-rule="evenodd"/>
	<rect id="Frame" width="20.000000" height="20.000000" transform="translate(178.000000 180.000000)" fill="#FFFFFF" fill-opacity="0"/>
	<g clip-path="url(#clip2_649)">
		<path id="Vector" d="M188.14 190L185.78 187.64L186.96 186.46L190.5 190L186.96 193.53L185.78 192.35L188.14 190Z" fill="#FFB400" fill-opacity="1.000000" fill-rule="nonzero"/>
	</g>
</svg>
