<svg width="310.000000" height="225.000000" viewBox="0 0 310 225" fill="none" xmlns="http://www.w3.org/2000/svg" xmlns:xlink="http://www.w3.org/1999/xlink">
	<desc>
			Created with Pixso.
	</desc>
	<defs>
		<clipPath id="clip2_6154">
			<rect id="Icons/game-development" width="74.000000" height="74.000000" transform="translate(118.000000 33.000000)" fill="white" fill-opacity="0"/>
		</clipPath>
	</defs>
	<rect id="Rectangle 48" width="310.000000" height="225.000000" fill="#FFFFFF" fill-opacity="1.000000"/>
	<rect id="Icons/game-development" width="74.000000" height="74.000000" transform="translate(118.000000 33.000000)" fill="#FFFFFF" fill-opacity="0"/>
	<rect id="Icons/game-development" width="74.000000" height="74.000000" transform="translate(118.000000 33.000000)" fill="#FFFFFF" fill-opacity="0"/>
	<rect id="Icons/game-development" width="74.000000" height="74.000000" transform="translate(118.000000 33.000000)" fill="#FFFFFF" fill-opacity="0"/>
	<rect id="Icons/game-development" width="74.000000" height="74.000000" transform="translate(118.000000 33.000000)" fill="#FFFFFF" fill-opacity="0"/>
	<rect id="Icons/game-development" width="74.000000" height="74.000000" transform="translate(118.000000 33.000000)" fill="#FFFFFF" fill-opacity="0"/>
	<g clip-path="url(#clip2_6154)">
		<path id="Vector" d="M150.37 71.15L159.62 71.15L159.62 73.46L150.37 73.46L150.37 71.15Z" fill="#FFB400" fill-opacity="1.000000" fill-rule="nonzero"/>
		<path id="Vector" d="M153.84 67.68L156.15 67.68L156.15 76.93L153.84 76.93L153.84 67.68Z" fill="#FFB400" fill-opacity="1.000000" fill-rule="nonzero"/>
		<path id="Vector" d="M183.9 71.15L186.21 71.15L186.21 73.46L183.9 73.46L183.9 71.15Z" fill="#FFB400" fill-opacity="1.000000" fill-rule="nonzero"/>
		<path id="Vector" d="M174.65 71.15L176.96 71.15L176.96 73.46L174.65 73.46L174.65 71.15Z" fill="#FFB400" fill-opacity="1.000000" fill-rule="nonzero"/>
		<path id="Vector" d="M179.28 66.53L181.59 66.53L181.59 68.84L179.28 68.84L179.28 66.53Z" fill="#FFB400" fill-opacity="1.000000" fill-rule="nonzero"/>
		<path id="Vector" d="M179.28 75.78L181.59 75.78L181.59 78.09L179.28 78.09L179.28 75.78Z" fill="#FFB400" fill-opacity="1.000000" fill-rule="nonzero"/>
		<path id="Vector" d="M128.66 53.37L123.45 46.87L128.66 40.37L130.46 41.81L126.41 46.87L130.46 51.93L128.66 53.37Z" fill="#FFB400" fill-opacity="1.000000" fill-rule="nonzero"/>
		<path id="Vector" d="M146.65 53.37L144.84 51.93L148.89 46.87L144.84 41.81L146.65 40.37L151.85 46.87L146.65 53.37Z" fill="#FFB400" fill-opacity="1.000000" fill-rule="nonzero"/>
		<path id="Vector" d="M132.73 50.73L140.83 41.48L142.57 43.01L134.47 52.26L132.73 50.73Z" fill="#FFB400" fill-opacity="1.000000" fill-rule="nonzero"/>
		<path id="Vector" d="M127.25 83.87L122.62 83.87L122.62 79.25L124.93 79.25L124.93 81.56L127.25 81.56L127.25 83.87Z" fill="#FFB400" fill-opacity="1.000000" fill-rule="nonzero"/>
		<path id="Vector" d="M188.53 35.31L121.46 35.31C119.55 35.31 118 36.86 118 38.78L118 85.03C118 86.94 119.55 88.5 121.46 88.5L145.75 88.5L145.75 94.28C145.75 96.19 144.19 97.75 142.28 97.75L136.5 97.75L136.5 104.68L173.5 104.68L173.5 97.75L167.71 97.75C165.8 97.75 164.25 96.19 164.25 94.28L164.25 88.5L188.53 88.5C190.44 88.5 192 86.94 192 85.03L192 38.78C192 36.86 190.44 35.31 188.53 35.31ZM171.18 100.06L171.18 102.37L138.81 102.37L138.81 100.06L171.18 100.06ZM155 95.48C156.91 95.48 158.46 93.93 158.46 92.01L158.46 88.5L161.93 88.5L161.93 94.28C161.94 95.53 162.35 96.75 163.12 97.75L146.87 97.75C147.64 96.75 148.05 95.53 148.06 94.28L148.06 88.5L151.53 88.5L151.53 92.01C151.53 93.93 153.08 95.48 155 95.48ZM153.84 92.01L153.84 88.5L156.15 88.5L156.15 92.01C156.15 92.65 155.63 93.17 155 93.17C154.36 93.17 153.84 92.65 153.84 92.01ZM189.68 85.03C189.68 85.66 189.17 86.18 188.53 86.18L121.46 86.18C120.83 86.18 120.31 85.66 120.31 85.03L120.31 74.62L143.66 74.62C144.62 79.33 148.39 82.95 153.13 83.72C157.87 84.49 162.6 82.25 165 78.09L170.43 78.09C172.37 81.46 175.87 83.62 179.75 83.85C183.63 84.08 187.37 82.33 189.68 79.22L189.68 85.03ZM180.43 81.56C176.92 81.57 173.71 79.57 172.16 76.42L171.84 75.78L163.59 75.78L163.27 76.42C161.24 80.51 156.54 82.5 152.19 81.12C147.84 79.74 145.14 75.4 145.85 70.89C146.55 66.38 150.43 63.05 155 63.06L180.43 63.06C185.54 63.06 189.68 67.2 189.68 72.31C189.68 77.42 185.54 81.56 180.43 81.56ZM189.68 65.4C187.51 62.47 184.08 60.75 180.43 60.75L155 60.75C148.61 60.75 143.44 65.92 143.43 72.31L120.31 72.31L120.31 38.78C120.31 38.14 120.83 37.62 121.46 37.62L188.53 37.62C189.17 37.62 189.68 38.14 189.68 38.78L189.68 65.4Z" fill="#FFB400" fill-opacity="1.000000" fill-rule="nonzero"/>
		<path id="Vector" d="M165.4 71.15L170.03 71.15L170.03 73.46L165.4 73.46L165.4 71.15Z" fill="#FFB400" fill-opacity="1.000000" fill-rule="nonzero"/>
		<path id="Vector" d="M152.68 42.25L161.93 42.25L161.93 44.56L152.68 44.56L152.68 42.25Z" fill="#FFB400" fill-opacity="1.000000" fill-rule="nonzero"/>
		<path id="Vector" d="M166.56 42.25L185.06 42.25L185.06 44.56L166.56 44.56L166.56 42.25Z" fill="#FFB400" fill-opacity="1.000000" fill-rule="nonzero"/>
		<path id="Vector" d="M168.87 46.87L185.06 46.87L185.06 49.18L168.87 49.18L168.87 46.87Z" fill="#FFB400" fill-opacity="1.000000" fill-rule="nonzero"/>
		<path id="Vector" d="M155 46.87L164.25 46.87L164.25 49.18L155 49.18L155 46.87Z" fill="#FFB400" fill-opacity="1.000000" fill-rule="nonzero"/>
		<path id="Vector" d="M152.68 51.5L175.81 51.5L175.81 53.81L152.68 53.81L152.68 51.5Z" fill="#FFB400" fill-opacity="1.000000" fill-rule="nonzero"/>
		<path id="Vector" d="M180.43 51.5L185.06 51.5L185.06 53.81L180.43 53.81L180.43 51.5Z" fill="#FFB400" fill-opacity="1.000000" fill-rule="nonzero"/>
		<path id="Vector" d="M124.93 56.12L136.5 56.12L136.5 58.43L124.93 58.43L124.93 56.12Z" fill="#FFB400" fill-opacity="1.000000" fill-rule="nonzero"/>
		<path id="Vector" d="M141.12 56.12L163.09 56.12L163.09 58.43L141.12 58.43L141.12 56.12Z" fill="#FFB400" fill-opacity="1.000000" fill-rule="nonzero"/>
		<path id="Vector" d="M166.56 56.12L185.06 56.12L185.06 58.43L166.56 58.43L166.56 56.12Z" fill="#FFB400" fill-opacity="1.000000" fill-rule="nonzero"/>
		<path id="Vector" d="M124.93 60.75L143.43 60.75L143.43 63.06L124.93 63.06L124.93 60.75Z" fill="#FFB400" fill-opacity="1.000000" fill-rule="nonzero"/>
		<path id="Vector" d="M124.93 65.37L134.18 65.37L134.18 67.68L124.93 67.68L124.93 65.37Z" fill="#FFB400" fill-opacity="1.000000" fill-rule="nonzero"/>
		<path id="Vector" d="M136.5 65.37L141.12 65.37L141.12 67.68L136.5 67.68L136.5 65.37Z" fill="#FFB400" fill-opacity="1.000000" fill-rule="nonzero"/>
	</g>
	<path id="game design" d="M188.63 133.52C188.63 134.15 188.08 134.66 187.42 134.66C186.76 134.66 186.22 134.15 186.22 133.52C186.22 132.9 186.76 132.38 187.42 132.38C188.08 132.38 188.63 132.9 188.63 133.52ZM109.32 137.04L107.29 137.04C106.8 135.49 105.63 134.53 103.89 134.53C101.67 134.53 99.97 136.27 99.97 139.44C99.97 142.62 101.65 144.37 103.96 144.37C106.06 144.37 107.45 143.04 107.5 140.93L104.26 140.93L104.26 139.3L109.41 139.3L109.41 140.79C109.41 144.09 107.14 146.17 103.96 146.17C100.41 146.17 98.01 143.6 98.01 139.46C98.01 135.28 100.48 132.72 103.87 132.72C106.7 132.72 108.88 134.49 109.32 137.04ZM163.94 139.43C163.94 143.52 161.63 146 157.64 146L153.4 146L153.4 132.9L157.78 132.9C161.63 132.9 163.94 135.36 163.94 139.43ZM155.38 134.63L155.38 144.27L157.53 144.27C160.52 144.27 162 142.53 162 139.43C162 136.35 160.52 134.63 157.66 134.63L155.38 134.63ZM117.52 144.66C117.16 145.39 116.24 146.21 114.62 146.21C112.75 146.21 111.3 145.15 111.3 143.22C111.3 140.99 113.21 140.51 115.06 140.29C116.83 140.08 117.55 140.09 117.55 139.4L117.55 139.36C117.55 138.24 116.91 137.6 115.68 137.6C114.4 137.6 113.68 138.27 113.4 138.96L111.6 138.56C112.24 136.77 113.88 136.05 115.65 136.05C117.21 136.05 119.46 136.62 119.46 139.47L119.46 146L117.6 146L117.6 144.66L117.52 144.66ZM123.92 146L122.01 146L122.01 136.18L123.84 136.18L123.84 137.77L123.96 137.77C124.37 136.7 125.34 136.05 126.63 136.05C127.95 136.05 128.85 136.7 129.27 137.77L129.38 137.77C129.85 136.73 130.91 136.05 132.32 136.05C134.1 136.05 135.35 137.17 135.35 139.41L135.35 146L133.44 146L133.44 139.59C133.44 138.26 132.61 137.7 131.6 137.7C130.36 137.7 129.63 138.56 129.63 139.74L129.63 146L127.73 146L127.73 139.47C127.73 138.4 126.99 137.7 125.93 137.7C124.84 137.7 123.92 138.62 123.92 139.94L123.92 146ZM146.23 143.54C145.8 145.14 144.28 146.19 142.14 146.19C139.25 146.19 137.47 144.2 137.47 141.15C137.47 138.13 139.27 136.05 142.01 136.05C144.23 136.05 146.36 137.43 146.36 140.99L146.36 141.66L139.37 141.66C139.42 143.55 140.52 144.62 142.16 144.62C143.25 144.62 144.08 144.14 144.43 143.21L146.23 143.54ZM174.56 143.54C174.13 145.14 172.62 146.19 170.47 146.19C167.57 146.19 165.8 144.2 165.8 141.15C165.8 138.13 167.6 136.05 170.34 136.05C172.56 136.05 174.69 137.43 174.69 140.99L174.69 141.66L167.7 141.66C167.76 143.55 168.85 144.62 170.49 144.62C171.58 144.62 172.41 144.14 172.76 143.21L174.56 143.54ZM180.45 136.05C182.58 136.05 183.77 137.05 184.17 138.57L182.44 138.88C182.21 138.22 181.66 137.56 180.48 137.56C179.39 137.56 178.57 138.1 178.58 138.85C178.57 139.52 179.04 139.88 180.12 140.14L181.68 140.5C183.48 140.92 184.36 141.77 184.36 143.16C184.36 144.94 182.72 146.19 180.35 146.19C178.14 146.19 176.7 145.22 176.38 143.48L178.23 143.2C178.45 144.16 179.19 144.66 180.34 144.66C181.59 144.66 182.4 144.06 182.4 143.3C182.4 142.69 181.96 142.26 181.01 142.05L179.35 141.69C177.51 141.28 176.67 140.35 176.67 138.96C176.67 137.22 178.24 136.05 180.45 136.05ZM199.49 146.21C199.49 148.74 197.56 149.88 195.06 149.88C192.71 149.88 191.4 148.86 190.88 147.66L192.52 146.98C192.86 147.54 193.48 148.34 195.07 148.34C196.53 148.34 197.58 147.68 197.58 146.14L197.58 144.21L197.46 144.21C197.11 144.83 196.42 145.85 194.62 145.85C192.3 145.85 190.51 144.18 190.51 141.05C190.51 137.92 192.26 136.05 194.63 136.05C196.46 136.05 197.13 137.16 197.47 137.77L197.61 137.77L197.61 136.18L199.49 136.18L199.49 146.21ZM206.25 137.7C204.92 137.7 203.96 138.6 203.96 140.16L203.96 146L202.05 146L202.05 136.18L203.88 136.18L203.88 137.77L204 137.77C204.46 136.73 205.42 136.05 206.9 136.05C208.91 136.05 210.24 137.32 210.24 139.75L210.24 146L208.33 146L208.33 139.98C208.33 138.56 207.54 137.7 206.25 137.7ZM188.37 146L186.46 146L186.46 136.18L188.37 136.18L188.37 146ZM142.02 137.63C140.47 137.63 139.46 138.84 139.38 140.23L144.48 140.23C144.47 138.73 143.5 137.63 142.02 137.63ZM170.35 137.63C168.8 137.63 167.79 138.84 167.71 140.23L172.81 140.23C172.8 138.73 171.83 137.63 170.35 137.63ZM192.44 141.02C192.44 142.95 193.33 144.26 195.04 144.26C196.69 144.26 197.6 143.05 197.6 141.02C197.6 139.03 196.7 137.67 195.04 137.67C193.31 137.67 192.44 139.14 192.44 141.02ZM113.17 143.25C113.17 144.19 113.95 144.68 115.03 144.68C116.62 144.68 117.55 143.62 117.55 142.45L117.55 141.19C117.28 141.46 115.81 141.63 115.19 141.71C114.08 141.86 113.17 142.22 113.17 143.25Z" fill="#2B2B2B" fill-opacity="1.000000" fill-rule="evenodd"/>
	<path id="Character Design, Props &amp; Objects" d="M136.85 174.6C136.85 175.07 136.45 175.45 135.96 175.45C135.47 175.45 135.06 175.07 135.06 174.6C135.06 174.13 135.47 173.75 135.96 173.75C136.45 173.75 136.85 174.13 136.85 174.6ZM246.52 174.6C246.52 175.07 246.12 175.45 245.62 175.45C245.13 175.45 244.73 175.07 244.73 174.6C244.73 174.13 245.13 173.75 245.62 173.75C246.12 173.75 246.52 174.13 246.52 174.6ZM37.88 173.94C40.08 173.94 41.87 175.26 42.27 177.5L40.95 177.5C40.63 175.98 39.33 175.17 37.88 175.17C35.9 175.17 34.34 176.71 34.34 179.54C34.34 182.37 35.9 183.91 37.88 183.91C39.33 183.91 40.63 183.1 40.95 181.59L42.27 181.59C41.87 183.82 40.08 185.15 37.88 185.15C35.09 185.15 33.07 182.99 33.07 179.54C33.07 176.09 35.09 173.94 37.88 173.94ZM228.83 173.94C231.62 173.94 233.65 176.09 233.65 179.54C233.65 182.99 231.62 185.15 228.83 185.15C226.04 185.15 224.02 182.99 224.02 179.54C224.02 176.09 226.04 173.94 228.83 173.94ZM216.39 184.07C215.68 184.79 214.56 185.15 213.56 185.15C211.4 185.15 210.08 183.87 210.08 182.1C210.08 180.78 210.96 179.96 212.24 179.07C211.49 178.17 210.96 177.42 210.96 176.45C210.96 174.98 212 173.98 213.6 173.98C215.24 173.98 216.24 175.05 216.24 176.26C216.24 177.31 215.69 178.03 214.79 178.69L213.99 179.29L216.36 182.18C216.65 181.63 216.82 180.97 216.82 180.22L218.03 180.22C218.03 181.75 217.58 182.63 217.17 183.16L218.67 185L217.16 185L216.39 184.07ZM47.64 177.84C46.4 177.84 45.49 178.65 45.49 180.07L45.49 185L44.23 185L44.23 174.09L45.49 174.09L45.49 178.09L45.6 178.09C45.98 177.25 46.71 176.71 48 176.71C49.68 176.71 50.79 177.69 50.79 179.8L50.79 185L49.54 185L49.54 179.88C49.54 178.58 48.82 177.84 47.64 177.84ZM116.7 179.52C116.7 182.93 114.82 185 111.5 185L108.13 185L108.13 174.09L111.65 174.09C114.82 174.09 116.7 176.13 116.7 179.52ZM166.7 185L165.38 185L165.38 174.09L169.07 174.09C171.63 174.09 172.78 175.61 172.78 177.54C172.78 179.47 171.63 181.01 169.09 181.01L166.7 181.01L166.7 185ZM237.08 185L235.87 185L235.87 174.09L237.12 174.09L237.12 178.11L237.23 178.11C237.51 177.69 238 176.71 239.59 176.71C241.66 176.71 243.09 178.35 243.09 180.93C243.09 183.53 241.66 185.17 239.62 185.17C238.04 185.17 237.51 184.19 237.23 183.74L237.08 183.74L237.08 185ZM85.78 176.81L87.53 176.81L87.53 177.88L85.78 177.88L85.78 182.65C85.78 183.72 86.31 183.89 86.86 183.89C87.14 183.89 87.32 183.85 87.42 183.82L87.68 184.95C87.51 185.02 87.21 185.1 86.74 185.1C85.67 185.1 84.52 184.42 84.52 182.99L84.52 177.88L83.29 177.88L83.29 176.81L84.52 176.81L84.52 174.86L85.78 174.86L85.78 176.81ZM267.49 176.81L269.23 176.81L269.23 177.88L267.49 177.88L267.49 182.65C267.49 183.72 268.02 183.89 268.57 183.89C268.85 183.89 269.02 183.85 269.13 183.82L269.38 184.95C269.21 185.02 268.91 185.1 268.45 185.1C267.38 185.1 266.23 184.42 266.23 182.99L266.23 177.88L264.99 177.88L264.99 176.81L266.23 176.81L266.23 174.86L267.49 174.86L267.49 176.81ZM212.24 176.47C212.24 177.08 212.69 177.7 213.22 178.35L213.94 177.81C214.56 177.41 214.96 177 214.96 176.26C214.96 175.7 214.43 175.07 213.64 175.07C212.81 175.07 212.24 175.79 212.24 176.47ZM228.83 183.91C230.81 183.91 232.37 182.37 232.37 179.54C232.37 176.71 230.81 175.17 228.83 175.17C226.85 175.17 225.3 176.71 225.3 179.54C225.3 182.37 226.85 183.91 228.83 183.91ZM109.45 175.26L109.45 183.82L111.41 183.82C114.12 183.82 115.42 182.18 115.42 179.52C115.42 176.88 114.12 175.26 111.56 175.26L109.45 175.26ZM166.7 175.26L166.7 179.84L169.05 179.84C170.8 179.84 171.48 178.85 171.48 177.54C171.48 176.23 170.8 175.26 169.03 175.26L166.7 175.26ZM62.81 185L61.55 185L61.55 176.81L62.77 176.81L62.77 178.05L62.85 178.05C63.15 177.24 64 176.69 64.98 176.69C65.17 176.69 65.5 176.7 65.64 176.71L65.64 177.99C65.56 177.96 65.21 177.9 64.88 177.9C63.68 177.9 62.81 178.71 62.81 179.82L62.81 185ZM99.41 185L98.16 185L98.16 176.81L99.37 176.81L99.37 178.05L99.46 178.05C99.76 177.24 100.61 176.69 101.59 176.69C101.78 176.69 102.11 176.7 102.25 176.71L102.25 177.99C102.17 177.96 101.82 177.9 101.48 177.9C100.29 177.9 99.41 178.71 99.41 179.82L99.41 185ZM175.99 185L174.74 185L174.74 176.81L175.95 176.81L175.95 178.05L176.04 178.05C176.34 177.24 177.19 176.69 178.17 176.69C178.35 176.69 178.68 176.7 178.83 176.71L178.83 177.99C178.74 177.96 178.39 177.9 178.06 177.9C176.87 177.9 175.99 178.71 175.99 179.82L175.99 185ZM57.93 183.89C57.68 184.42 56.93 185.19 55.5 185.19C53.95 185.19 52.71 184.27 52.71 182.67C52.71 180.8 54.37 180.46 55.89 180.26C57.38 180.07 57.99 180.13 57.99 179.52L57.99 179.48C57.99 178.43 57.43 177.81 56.27 177.81C55.07 177.81 54.42 178.45 54.14 179.05L52.94 178.62C53.59 177.13 54.99 176.71 56.23 176.71C57.27 176.71 59.25 177 59.25 179.6L59.25 185L57.99 185L57.99 183.89L57.93 183.89ZM71.97 183.89C71.72 184.42 70.97 185.19 69.55 185.19C67.99 185.19 66.75 184.27 66.75 182.67C66.75 180.8 68.41 180.46 69.93 180.26C71.42 180.07 72.04 180.13 72.04 179.52L72.04 179.48C72.04 178.43 71.47 177.81 70.31 177.81C69.11 177.81 68.46 178.45 68.18 179.05L66.99 178.62C67.63 177.13 69.03 176.71 70.27 176.71C71.31 176.71 73.3 177 73.3 179.6L73.3 185L72.04 185L72.04 183.89L71.97 183.89ZM82.14 182.61C81.92 184.06 80.73 185.17 78.92 185.17C76.62 185.17 75.21 183.4 75.21 180.95C75.21 178.45 76.68 176.71 78.9 176.71C80.62 176.71 81.92 177.73 82.14 179.26L80.88 179.26C80.69 178.52 80.03 177.84 78.92 177.84C77.45 177.84 76.47 179.05 76.47 180.9C76.47 182.8 77.43 184.04 78.92 184.04C79.9 184.04 80.64 183.51 80.88 182.61L82.14 182.61ZM96.11 183.1C95.73 184.34 94.52 185.17 92.85 185.17C90.49 185.17 89.04 183.48 89.04 180.97C89.04 178.45 90.51 176.71 92.73 176.71C94.43 176.71 96.24 177.75 96.24 180.8L96.24 181.33L90.3 181.33C90.36 183.08 91.38 184.04 92.85 184.04C93.84 184.04 94.58 183.61 94.9 182.76L96.11 183.1ZM125.43 183.1C125.05 184.34 123.84 185.17 122.17 185.17C119.81 185.17 118.36 183.48 118.36 180.97C118.36 178.45 119.83 176.71 122.04 176.71C123.75 176.71 125.56 177.75 125.56 180.8L125.56 181.33L119.62 181.33C119.68 183.08 120.7 184.04 122.17 184.04C123.16 184.04 123.9 183.61 124.22 182.76L125.43 183.1ZM130.37 176.71C132 176.71 132.88 177.48 133.27 178.65L132.14 178.96C131.93 178.4 131.47 177.79 130.37 177.79C129.37 177.79 128.63 178.3 128.63 179.01C128.63 179.64 129.07 179.96 130.03 180.2L131.25 180.5C132.71 180.86 133.42 181.58 133.42 182.71C133.42 184.13 132.13 185.17 130.23 185.17C128.55 185.17 127.41 184.42 127.11 183.04L128.31 182.74C128.53 183.61 129.18 184.06 130.21 184.06C131.38 184.06 132.12 183.48 132.12 182.78C132.12 182.22 131.73 181.82 130.91 181.63L129.55 181.31C128.04 180.96 127.37 180.2 127.37 179.07C127.37 177.69 128.65 176.71 130.37 176.71ZM145.72 185.23C145.72 187.34 144.14 188.23 142.18 188.23C140.35 188.23 139.34 187.45 138.84 186.59L139.84 185.89C140.17 186.34 140.69 187.13 142.18 187.13C143.5 187.13 144.46 186.51 144.46 185.15L144.46 183.48L144.35 183.48C144.08 183.93 143.56 184.87 141.97 184.87C139.99 184.87 138.49 183.42 138.49 180.86C138.49 178.35 139.92 176.71 141.99 176.71C143.59 176.71 144.1 177.69 144.37 178.11L144.5 178.11L144.5 176.81L145.72 176.81L145.72 185.23ZM151.36 177.84C150.16 177.84 149.27 178.65 149.27 180.07L149.27 185L148.02 185L148.02 176.81L149.23 176.81L149.23 178.09L149.34 178.09C149.72 177.26 150.49 176.71 151.73 176.71C153.38 176.71 154.5 177.71 154.5 179.8L154.5 185L153.24 185L153.24 179.88C153.24 178.6 152.53 177.84 151.36 177.84ZM187.35 180.95C187.35 183.48 185.86 185.17 183.64 185.17C181.43 185.17 179.93 183.48 179.93 180.95C179.93 178.39 181.43 176.71 183.64 176.71C185.86 176.71 187.35 178.39 187.35 180.95ZM190.52 188.06L189.27 188.06L189.27 176.81L190.48 176.81L190.48 178.11L190.63 178.11C190.91 177.69 191.4 176.71 192.99 176.71C195.06 176.71 196.49 178.35 196.49 180.93C196.49 183.53 195.06 185.17 193.02 185.17C191.44 185.17 190.91 184.19 190.63 183.74L190.52 183.74L190.52 188.06ZM201.3 176.71C202.93 176.71 203.81 177.48 204.2 178.65L203.07 178.96C202.86 178.4 202.4 177.79 201.3 177.79C200.3 177.79 199.56 178.3 199.56 179.01C199.56 179.64 200 179.96 200.96 180.2L202.18 180.5C203.64 180.86 204.35 181.58 204.35 182.71C204.35 184.13 203.06 185.17 201.16 185.17C199.48 185.17 198.34 184.42 198.04 183.04L199.24 182.74C199.46 183.61 200.11 184.06 201.14 184.06C202.31 184.06 203.05 183.48 203.05 182.78C203.05 182.22 202.66 181.82 201.84 181.63L200.48 181.31C198.97 180.96 198.3 180.2 198.3 179.07C198.3 177.69 199.58 176.71 201.3 176.71ZM255.25 183.1C254.87 184.34 253.66 185.17 252 185.17C249.63 185.17 248.18 183.48 248.18 180.97C248.18 178.45 249.65 176.71 251.87 176.71C253.57 176.71 255.38 177.75 255.38 180.8L255.38 181.33L249.44 181.33C249.5 183.08 250.52 184.04 252 184.04C252.98 184.04 253.72 183.61 254.04 182.76L255.25 183.1ZM263.84 182.61C263.63 184.06 262.43 185.17 260.62 185.17C258.32 185.17 256.91 183.4 256.91 180.95C256.91 178.45 258.39 176.71 260.6 176.71C262.33 176.71 263.63 177.73 263.84 179.26L262.58 179.26C262.39 178.52 261.73 177.84 260.62 177.84C259.15 177.84 258.17 179.05 258.17 180.9C258.17 182.8 259.13 184.04 260.62 184.04C261.6 184.04 262.35 183.51 262.58 182.61L263.84 182.61ZM274.02 176.71C275.65 176.71 276.53 177.48 276.92 178.65L275.79 178.96C275.58 178.4 275.12 177.79 274.02 177.79C273.02 177.79 272.28 178.3 272.28 179.01C272.28 179.64 272.72 179.96 273.68 180.2L274.9 180.5C276.36 180.86 277.07 181.58 277.07 182.71C277.07 184.13 275.78 185.17 273.88 185.17C272.2 185.17 271.06 184.42 270.76 183.04L271.96 182.74C272.18 183.61 272.83 184.06 273.85 184.06C275.03 184.06 275.77 183.48 275.77 182.78C275.77 182.22 275.38 181.82 274.56 181.63L273.2 181.31C271.69 180.96 271.02 180.2 271.02 179.07C271.02 177.69 272.3 176.71 274.02 176.71ZM136.57 185L135.32 185L135.32 176.81L136.57 176.81L136.57 185ZM245.01 185.59L245.01 176.81L246.26 176.81L246.26 185.59C246.26 187.1 245.5 188.06 243.92 188.06L243.67 188.06L243.67 186.89L243.9 186.89C244.66 186.89 245.01 186.42 245.01 185.59ZM92.73 177.84C91.29 177.84 90.39 178.97 90.3 180.25L94.96 180.25C94.96 178.86 94.09 177.84 92.73 177.84ZM122.04 177.84C120.61 177.84 119.7 178.97 119.62 180.25L124.28 180.25C124.28 178.86 123.41 177.84 122.04 177.84ZM139.75 180.84C139.75 182.55 140.56 183.74 142.14 183.74C143.65 183.74 144.48 182.65 144.48 180.84C144.48 179.07 143.67 177.84 142.14 177.84C140.54 177.84 139.75 179.18 139.75 180.84ZM181.19 180.95C181.19 182.59 181.96 184.04 183.64 184.04C185.32 184.04 186.09 182.59 186.09 180.95C186.09 179.31 185.32 177.84 183.64 177.84C181.96 177.84 181.19 179.31 181.19 180.95ZM192.85 177.84C191.31 177.84 190.5 179.07 190.5 180.9C190.5 182.76 191.34 184.04 192.85 184.04C194.42 184.04 195.23 182.65 195.23 180.9C195.23 179.18 194.45 177.84 192.85 177.84ZM239.44 177.84C237.91 177.84 237.1 179.07 237.1 180.9C237.1 182.76 237.93 184.04 239.44 184.04C241.02 184.04 241.83 182.65 241.83 180.9C241.83 179.18 241.04 177.84 239.44 177.84ZM251.87 177.84C250.43 177.84 249.53 178.97 249.44 180.25L254.1 180.25C254.1 178.86 253.23 177.84 251.87 177.84ZM213.51 184.04C214.27 184.04 215.03 183.72 215.63 183.16L213.02 180.01L212.62 180.31C211.64 181.03 211.36 181.8 211.36 182.1C211.36 183.12 212.21 184.04 213.51 184.04ZM53.97 182.74C53.97 183.61 54.69 184.06 55.69 184.06C57.19 184.06 57.99 183.06 57.99 182.03L57.99 180.88C57.78 181.14 56.35 181.29 55.82 181.35C54.84 181.48 53.97 181.78 53.97 182.74ZM68.01 182.74C68.01 183.61 68.74 184.06 69.74 184.06C71.23 184.06 72.04 183.06 72.04 182.03L72.04 180.88C71.82 181.14 70.39 181.29 69.86 181.35C68.88 181.48 68.01 181.78 68.01 182.74ZM157.31 183.51L158.67 183.51L158.59 184.08C158.4 185.29 157.86 186.93 157.6 187.66L156.64 187.66C156.78 186.98 157.09 185.54 157.24 184.1L157.31 183.51Z" fill="#767676" fill-opacity="1.000000" fill-rule="evenodd"/>
</svg>
