<svg width="310.000000" height="225.000000" viewBox="0 0 310 225" fill="none" xmlns="http://www.w3.org/2000/svg" xmlns:xlink="http://www.w3.org/1999/xlink">
	<desc>
			Created with Pixso.
	</desc>
	<defs>
		<clipPath id="clip2_6020">
			<rect id="Icons/Photographer" width="78.000000" height="78.000000" transform="translate(116.000000 25.000000)" fill="white" fill-opacity="0"/>
		</clipPath>
	</defs>
	<rect id="Rectangle 49" width="310.000000" height="225.000000" fill="#FFFFFF" fill-opacity="1.000000"/>
	<rect id="Icons/Photographer" width="78.000000" height="78.000000" transform="translate(116.000000 25.000000)" fill="#FFFFFF" fill-opacity="0"/>
	<rect id="Icons/Photographer" width="78.000000" height="78.000000" transform="translate(116.000000 25.000000)" fill="#FFFFFF" fill-opacity="0"/>
	<rect id="Icons/Photographer" width="78.000000" height="78.000000" transform="translate(116.000000 25.000000)" fill="#FFFFFF" fill-opacity="0"/>
	<rect id="Icons/Photographer" width="78.000000" height="78.000000" transform="translate(116.000000 25.000000)" fill="#FFFFFF" fill-opacity="0"/>
	<rect id="Icons/Photographer" width="78.000000" height="78.000000" transform="translate(116.000000 25.000000)" fill="#FFFFFF" fill-opacity="0"/>
	<g clip-path="url(#clip2_6020)">
		<path id="Vector" d="M171.35 97.96L190.71 97.96L185.74 83.05C184.44 79.15 181.12 76.26 177.08 75.51L163.8 73.02L163.8 69.94C166.98 67.65 169.23 64.15 169.88 60.12C172.85 59.61 175.12 57.04 175.12 53.93L175.12 45.12C175.12 34.03 166.09 25 155 25C143.9 25 134.87 34.03 134.87 45.12L134.87 53.93C134.87 57.04 137.13 59.62 140.09 60.13C140.75 64.16 143 67.67 146.19 69.96L146.19 73.02L132.91 75.51C128.87 76.26 125.55 79.16 124.25 83.05L119.28 97.96L138.64 97.96L138.64 95.45L135.22 95.45L137.34 86.94L134.9 86.34L132.63 95.45L122.77 95.45L126.64 83.85C127.65 80.82 130.23 78.57 133.37 77.98L141.38 76.48L143.43 85.7C142.1 86.28 141.16 87.61 141.16 89.16L141.16 99.22C141.16 101.3 142.85 103 144.93 103L165.06 103C167.14 103 168.83 101.3 168.83 99.22L168.83 89.16C168.83 87.61 167.9 86.28 166.56 85.7L168.61 76.48L176.62 77.98C179.76 78.57 182.34 80.82 183.35 83.85L187.22 95.45L177.37 95.45L175.09 86.34L172.65 86.94L174.77 95.45L171.35 95.45L171.35 97.96ZM166.13 76.01L164.4 83.83L163.53 80.35L158.03 80.35L162.96 75.42L166.13 76.01ZM162.19 85.38L147.8 85.38L148.43 82.87L161.56 82.87L162.19 85.38ZM155 79.83L148.7 73.54L148.7 71.42C150.62 72.3 152.75 72.8 155 72.8C157.24 72.8 159.37 72.29 161.28 71.41L161.28 73.54L155 79.83ZM170.09 57.47L170.09 50.39C171.55 50.91 172.61 52.29 172.61 53.93C172.61 55.57 171.55 56.95 170.09 57.47ZM139.9 57.49C138.43 56.97 137.38 55.57 137.38 53.93C137.38 52.29 138.43 50.89 139.9 50.37L139.9 57.49ZM137.38 48.93L137.38 45.12C137.38 35.41 145.28 27.51 155 27.51C164.71 27.51 172.61 35.41 172.61 45.12L172.61 48.93C171.86 48.37 171 47.95 170.05 47.76C169.85 46.28 168.59 45.12 167.06 45.12C166.26 45.12 165.47 45.45 164.84 46.08C162.72 48.2 160.03 49.56 157.11 50L157.19 49.84C157.4 49.42 157.51 48.95 157.51 48.48L157.51 48.16C157.51 46.49 156.15 45.12 154.47 45.12C153.67 45.12 152.89 45.45 152.33 46.01C149.68 48.66 146.16 50.13 142.41 50.16L142.41 47.64L141.16 47.64C139.73 47.64 138.44 48.13 137.38 48.93ZM142.41 57.7L142.41 52.67C146.83 52.65 150.98 50.92 154.1 47.79C154.41 47.49 155 47.74 155 48.16L155 48.48C155 48.56 154.98 48.64 154.94 48.71L152.96 52.67L155 52.67C159.39 52.67 163.52 50.96 166.69 47.79C166.99 47.49 167.58 47.74 167.58 48.16L167.58 57.7C167.58 64.64 161.93 70.29 155 70.29C148.06 70.29 142.41 64.64 142.41 57.7ZM147.03 75.42L151.96 80.35L146.46 80.35L145.6 83.83L143.86 76.01L147.03 75.42ZM144.93 100.48C144.24 100.48 143.67 99.92 143.67 99.22L143.67 89.16C143.67 88.46 144.24 87.9 144.93 87.9L148.84 87.9C147.21 89.5 146.19 91.73 146.19 94.19C146.19 96.65 147.21 98.88 148.84 100.48L144.93 100.48ZM155 100.48C151.53 100.48 148.7 97.66 148.7 94.19C148.7 90.72 151.53 87.9 155 87.9C158.46 87.9 161.28 90.72 161.28 94.19C161.28 97.66 158.46 100.48 155 100.48ZM166.32 99.22C166.32 99.92 165.75 100.48 165.06 100.48L161.14 100.48C162.78 98.88 163.8 96.65 163.8 94.19C163.8 91.73 162.78 89.5 161.14 87.9L165.06 87.9C165.75 87.9 166.32 88.46 166.32 89.16L166.32 99.22Z" fill="#FFB400" fill-opacity="1.000000" fill-rule="nonzero"/>
		<path id="Vector" d="M155 90.41C152.91 90.41 151.22 92.11 151.22 94.19C151.22 96.27 152.91 97.96 155 97.96C157.08 97.96 158.77 96.27 158.77 94.19C158.77 92.11 157.08 90.41 155 90.41ZM155 95.45C154.3 95.45 153.74 94.88 153.74 94.19C153.74 93.49 154.3 92.93 155 92.93C155.69 92.93 156.25 93.49 156.25 94.19C156.25 94.88 155.69 95.45 155 95.45Z" fill="#FFB400" fill-opacity="1.000000" fill-rule="nonzero"/>
	</g>
	<path id="photography" d="M102.41 146L100.43 146L100.43 132.9L105.1 132.9C108.14 132.9 109.63 134.73 109.63 137.14C109.63 139.56 108.13 141.39 105.1 141.39L102.41 141.39L102.41 146ZM116.05 137.7C114.69 137.7 113.7 138.6 113.7 140.16L113.7 146L111.78 146L111.78 132.9L113.67 132.9L113.67 137.77L113.79 137.77C114.25 136.71 115.17 136.05 116.7 136.05C118.72 136.05 120.06 137.3 120.06 139.75L120.06 146L118.15 146L118.15 139.98C118.15 138.54 117.37 137.7 116.05 137.7ZM194.45 137.7C193.09 137.7 192.09 138.6 192.09 140.16L192.09 146L190.18 146L190.18 132.9L192.07 132.9L192.07 137.77L192.19 137.77C192.65 136.71 193.57 136.05 195.1 136.05C197.12 136.05 198.46 137.3 198.46 139.75L198.46 146L196.55 146L196.55 139.98C196.55 138.54 195.76 137.7 194.45 137.7ZM136.03 136.18L138.04 136.18L138.04 137.71L136.03 137.71L136.03 143.11C136.03 144.22 136.59 144.42 137.21 144.42C137.52 144.42 137.75 144.37 137.88 144.34L138.22 145.92C138 146 137.59 146.12 136.98 146.12C135.48 146.15 134.11 145.29 134.12 143.51L134.12 137.71L132.68 137.71L132.68 136.18L134.12 136.18L134.12 133.83L136.03 133.83L136.03 136.18ZM102.41 134.6L102.41 139.72L104.91 139.72C106.84 139.72 107.64 138.63 107.64 137.14C107.64 135.66 106.84 134.6 104.89 134.6L102.41 134.6ZM163.91 146L162 146L162 136.18L163.85 136.18L163.85 137.74L163.95 137.74C164.31 136.68 165.29 136.03 166.44 136.03C166.69 136.03 167.06 136.05 167.26 136.08L167.26 137.91C167.1 137.86 166.65 137.79 166.26 137.79C164.91 137.79 163.91 138.71 163.91 140L163.91 146ZM131.33 141.13C131.33 144.17 129.52 146.19 126.75 146.19C123.99 146.19 122.18 144.17 122.18 141.13C122.18 138.08 123.99 136.05 126.75 136.05C129.52 136.05 131.33 138.08 131.33 141.13ZM148.76 141.13C148.76 144.17 146.95 146.19 144.19 146.19C141.42 146.19 139.61 144.17 139.61 141.13C139.61 138.08 141.42 136.05 144.19 136.05C146.95 136.05 148.76 138.08 148.76 141.13ZM159.44 146.21C159.44 148.74 157.51 149.88 155.01 149.88C152.66 149.88 151.35 148.86 150.83 147.66L152.48 146.98C152.82 147.54 153.44 148.34 155.03 148.34C156.48 148.34 157.53 147.68 157.53 146.14L157.53 144.21L157.41 144.21C157.07 144.83 156.37 145.85 154.57 145.85C152.25 145.85 150.46 144.18 150.46 141.05C150.46 137.92 152.21 136.05 154.58 136.05C156.41 136.05 157.09 137.16 157.42 137.77L157.57 137.77L157.57 136.18L159.44 136.18L159.44 146.21ZM174.59 144.66C174.22 145.39 173.31 146.21 171.69 146.21C169.82 146.21 168.37 145.15 168.37 143.22C168.37 140.99 170.27 140.51 172.13 140.29C173.9 140.08 174.61 140.09 174.61 139.4L174.61 139.36C174.61 138.24 173.98 137.6 172.75 137.6C171.46 137.6 170.75 138.27 170.47 138.96L168.67 138.56C169.31 136.77 170.95 136.05 172.72 136.05C174.28 136.05 176.53 136.62 176.53 139.47L176.53 146L174.66 146L174.66 144.66L174.59 144.66ZM180.99 149.68L179.07 149.68L179.07 136.18L180.94 136.18L180.94 137.77L181.1 137.77C181.44 137.16 182.1 136.05 183.92 136.05C186.29 136.05 188.04 137.92 188.04 141.1C188.04 144.28 186.32 146.19 183.94 146.19C182.15 146.19 181.45 145.09 181.1 144.47L180.99 144.47L180.99 149.68ZM205.01 147.31C204.44 148.85 203.45 149.68 201.87 149.68C201.29 149.68 200.8 149.57 200.57 149.47L201.02 147.9C202.07 148.19 202.76 148.08 203.24 146.77L203.48 146.12L199.89 136.18L201.93 136.18L204.42 143.8L204.52 143.8L207.01 136.18L209.06 136.18L205.01 147.31ZM124.11 141.13C124.11 143.01 124.95 144.59 126.76 144.59C128.56 144.59 129.4 143.01 129.4 141.13C129.4 139.25 128.56 137.64 126.76 137.64C124.95 137.64 124.11 139.25 124.11 141.13ZM141.54 141.13C141.54 143.01 142.38 144.59 144.19 144.59C145.99 144.59 146.84 143.01 146.84 141.13C146.84 139.25 145.99 137.64 144.19 137.64C142.38 137.64 141.54 139.25 141.54 141.13ZM152.39 141.02C152.39 142.95 153.28 144.26 154.99 144.26C156.64 144.26 157.55 143.05 157.55 141.02C157.55 139.03 156.66 137.67 154.99 137.67C153.26 137.67 152.39 139.14 152.39 141.02ZM183.51 137.67C181.84 137.67 180.95 139.03 180.95 141.09C180.95 143.15 181.87 144.56 183.51 144.56C185.22 144.56 186.11 143.06 186.11 141.09C186.11 139.14 185.24 137.67 183.51 137.67ZM170.24 143.25C170.24 144.19 171.02 144.68 172.1 144.68C173.69 144.68 174.62 143.62 174.62 142.45L174.62 141.19C174.35 141.46 172.87 141.63 172.25 141.71C171.15 141.86 170.24 142.22 170.24 143.25Z" fill="#2B2B2B" fill-opacity="1.000000" fill-rule="evenodd"/>
	<path id="portrait, product photography" d="M94.54 174.6C94.54 175.07 94.13 175.45 93.64 175.45C93.15 175.45 92.75 175.07 92.75 174.6C92.75 174.13 93.15 173.75 93.64 173.75C94.13 173.75 94.54 174.13 94.54 174.6ZM50.94 185L49.62 185L49.62 174.09L53.31 174.09C55.87 174.09 57.02 175.61 57.02 177.54C57.02 179.47 55.87 181.01 53.33 181.01L50.94 181.01L50.94 185ZM111.92 185L110.6 185L110.6 174.09L114.29 174.09C116.85 174.09 118 175.61 118 177.54C118 179.47 116.85 181.01 114.31 181.01L111.92 181.01L111.92 185ZM139.96 183.74C139.69 184.19 139.15 185.17 137.58 185.17C135.53 185.17 134.1 183.53 134.1 180.93C134.1 178.35 135.53 176.71 137.6 176.71C139.2 176.71 139.69 177.69 139.96 178.11L140.07 178.11L140.07 174.09L141.33 174.09L141.33 185L140.11 185L140.11 183.74L139.96 183.74ZM172.05 185L170.73 185L170.73 174.09L174.42 174.09C176.98 174.09 178.13 175.61 178.13 177.54C178.13 179.47 176.98 181.01 174.44 181.01L172.05 181.01L172.05 185ZM183.49 177.84C182.25 177.84 181.34 178.65 181.34 180.07L181.34 185L180.08 185L180.08 174.09L181.34 174.09L181.34 178.09L181.45 178.09C181.83 177.25 182.57 176.71 183.86 176.71C185.53 176.71 186.65 177.69 186.65 179.8L186.65 185L185.39 185L185.39 179.88C185.39 178.58 184.68 177.84 183.49 177.84ZM248.03 177.84C246.79 177.84 245.88 178.65 245.88 180.07L245.88 185L244.62 185L244.62 174.09L245.88 174.09L245.88 178.09L245.99 178.09C246.37 177.25 247.11 176.71 248.39 176.71C250.07 176.71 251.19 177.69 251.19 179.8L251.19 185L249.93 185L249.93 179.88C249.93 178.58 249.21 177.84 248.03 177.84ZM75.32 176.81L77.07 176.81L77.07 177.88L75.32 177.88L75.32 182.65C75.32 183.72 75.85 183.89 76.4 183.89C76.68 183.89 76.85 183.85 76.96 183.82L77.22 184.95C77.04 185.02 76.75 185.1 76.28 185.1C75.21 185.1 74.06 184.42 74.06 182.99L74.06 177.88L72.83 177.88L72.83 176.81L74.06 176.81L74.06 174.86L75.32 174.86L75.32 176.81ZM98.37 176.81L100.12 176.81L100.12 177.88L98.37 177.88L98.37 182.65C98.37 183.72 98.9 183.89 99.46 183.89C99.74 183.89 99.91 183.85 100.01 183.82L100.27 184.95C100.1 185.02 99.8 185.1 99.33 185.1C98.27 185.1 97.11 184.42 97.11 182.99L97.11 177.88L95.88 177.88L95.88 176.81L97.11 176.81L97.11 174.86L98.37 174.86L98.37 176.81ZM162.7 176.81L164.45 176.81L164.45 177.88L162.7 177.88L162.7 182.65C162.7 183.72 163.23 183.89 163.78 183.89C164.06 183.89 164.23 183.85 164.34 183.82L164.6 184.95C164.42 185.02 164.13 185.1 163.66 185.1C162.59 185.1 161.44 184.42 161.44 182.99L161.44 177.88L160.21 177.88L160.21 176.81L161.44 176.81L161.44 174.86L162.7 174.86L162.7 176.81ZM199.71 176.81L201.46 176.81L201.46 177.88L199.71 177.88L199.71 182.65C199.71 183.72 200.24 183.89 200.79 183.89C201.07 183.89 201.24 183.85 201.35 183.82L201.61 184.95C201.43 185.02 201.14 185.1 200.67 185.1C199.6 185.1 198.45 184.42 198.45 182.99L198.45 177.88L197.22 177.88L197.22 176.81L198.45 176.81L198.45 174.86L199.71 174.86L199.71 176.81ZM50.94 175.26L50.94 179.84L53.29 179.84C55.04 179.84 55.72 178.85 55.72 177.54C55.72 176.23 55.04 175.26 53.27 175.26L50.94 175.26ZM111.92 175.26L111.92 179.84L114.27 179.84C116.02 179.84 116.7 178.85 116.7 177.54C116.7 176.23 116.02 175.26 114.25 175.26L111.92 175.26ZM172.05 175.26L172.05 179.84L174.39 179.84C176.15 179.84 176.83 178.85 176.83 177.54C176.83 176.23 176.15 175.26 174.38 175.26L172.05 175.26ZM69.18 185L67.92 185L67.92 176.81L69.14 176.81L69.14 178.05L69.22 178.05C69.53 177.24 70.37 176.69 71.36 176.69C71.54 176.69 71.87 176.7 72.02 176.71L72.02 177.99C71.93 177.96 71.58 177.9 71.25 177.9C70.06 177.9 69.18 178.71 69.18 179.82L69.18 185ZM80.22 185L78.96 185L78.96 176.81L80.18 176.81L80.18 178.05L80.26 178.05C80.56 177.24 81.41 176.69 82.39 176.69C82.58 176.69 82.91 176.7 83.05 176.71L83.05 177.99C82.97 177.96 82.62 177.9 82.29 177.9C81.09 177.9 80.22 178.71 80.22 179.82L80.22 185ZM121.21 185L119.96 185L119.96 176.81L121.17 176.81L121.17 178.05L121.26 178.05C121.56 177.24 122.41 176.69 123.39 176.69C123.57 176.69 123.9 176.7 124.05 176.71L124.05 177.99C123.96 177.96 123.61 177.9 123.28 177.9C122.09 177.9 121.21 178.71 121.21 179.82L121.21 185ZM222.7 185L221.44 185L221.44 176.81L222.66 176.81L222.66 178.05L222.74 178.05C223.04 177.24 223.89 176.69 224.87 176.69C225.06 176.69 225.39 176.7 225.53 176.71L225.53 177.99C225.45 177.96 225.1 177.9 224.77 177.9C223.57 177.9 222.7 178.71 222.7 179.82L222.7 185ZM66.01 180.95C66.01 183.48 64.52 185.17 62.3 185.17C60.09 185.17 58.59 183.48 58.59 180.95C58.59 178.39 60.09 176.71 62.3 176.71C64.52 176.71 66.01 178.39 66.01 180.95ZM89.38 183.89C89.13 184.42 88.38 185.19 86.95 185.19C85.4 185.19 84.16 184.27 84.16 182.67C84.16 180.8 85.82 180.46 87.33 180.26C88.83 180.07 89.44 180.13 89.44 179.52L89.44 179.48C89.44 178.43 88.88 177.81 87.72 177.81C86.52 177.81 85.87 178.45 85.59 179.05L84.39 178.62C85.03 177.13 86.44 176.71 87.68 176.71C88.72 176.71 90.7 177 90.7 179.6L90.7 185L89.44 185L89.44 183.89L89.38 183.89ZM132.57 180.95C132.57 183.48 131.08 185.17 128.86 185.17C126.65 185.17 125.15 183.48 125.15 180.95C125.15 178.39 126.65 176.71 128.86 176.71C131.08 176.71 132.57 178.39 132.57 180.95ZM159.05 182.61C158.84 184.06 157.65 185.17 155.84 185.17C153.53 185.17 152.13 183.4 152.13 180.95C152.13 178.45 153.6 176.71 155.82 176.71C157.54 176.71 158.84 177.73 159.05 179.26L157.8 179.26C157.61 178.52 156.94 177.84 155.84 177.84C154.37 177.84 153.39 179.05 153.39 180.9C153.39 182.8 154.35 184.04 155.84 184.04C156.82 184.04 157.56 183.51 157.8 182.61L159.05 182.61ZM195.98 180.95C195.98 183.48 194.49 185.17 192.27 185.17C190.06 185.17 188.56 183.48 188.56 180.95C188.56 178.39 190.06 176.71 192.27 176.71C194.49 176.71 195.98 178.39 195.98 180.95ZM210.38 180.95C210.38 183.48 208.89 185.17 206.68 185.17C204.46 185.17 202.97 183.48 202.97 180.95C202.97 178.39 204.46 176.71 206.68 176.71C208.89 176.71 210.38 178.39 210.38 180.95ZM219.14 185.23C219.14 187.34 217.56 188.23 215.6 188.23C213.78 188.23 212.77 187.45 212.26 186.59L213.26 185.89C213.6 186.34 214.12 187.13 215.6 187.13C216.93 187.13 217.88 186.51 217.88 185.15L217.88 183.48L217.78 183.48C217.5 183.93 216.99 184.87 215.39 184.87C213.41 184.87 211.92 183.42 211.92 180.86C211.92 178.35 213.34 176.71 215.41 176.71C217.01 176.71 217.52 177.69 217.8 178.11L217.93 178.11L217.93 176.81L219.14 176.81L219.14 185.23ZM231.86 183.89C231.6 184.42 230.86 185.19 229.43 185.19C227.88 185.19 226.64 184.27 226.64 182.67C226.64 180.8 228.3 180.46 229.81 180.26C231.31 180.07 231.92 180.13 231.92 179.52L231.92 179.48C231.92 178.43 231.36 177.81 230.2 177.81C229 177.81 228.35 178.45 228.07 179.05L226.87 178.62C227.51 177.13 228.92 176.71 230.15 176.71C231.2 176.71 233.18 177 233.18 179.6L233.18 185L231.92 185L231.92 183.89L231.86 183.89ZM236.74 188.06L235.48 188.06L235.48 176.81L236.7 176.81L236.7 178.11L236.85 178.11C237.12 177.69 237.61 176.71 239.21 176.71C241.28 176.71 242.71 178.35 242.71 180.93C242.71 183.53 241.28 185.17 239.23 185.17C237.66 185.17 237.12 184.19 236.85 183.74L236.74 183.74L236.74 188.06ZM94.26 185L93 185L93 176.81L94.26 176.81L94.26 185ZM146.85 183.89C147.78 183.89 148.96 183.18 148.96 181.65L148.96 176.81L150.21 176.81L150.21 185L148.96 185L148.96 183.61L148.87 183.61C148.49 184.44 147.68 185.1 146.44 185.1C144.91 185.1 143.8 184.1 143.8 182.01L143.8 176.81L145.05 176.81L145.05 181.93C145.05 183.12 145.8 183.89 146.85 183.89ZM256.71 186.19C256.23 187.46 255.43 188.06 254.3 188.06C253.87 188.06 253.51 187.98 253.38 187.91L253.7 186.81C254.62 187.04 255.18 186.93 255.64 185.68L255.87 185.04L252.85 176.81L254.21 176.81L256.47 183.33L256.56 183.33L258.81 176.81L260.18 176.81L256.71 186.19ZM59.85 180.95C59.85 182.59 60.62 184.04 62.3 184.04C63.98 184.04 64.75 182.59 64.75 180.95C64.75 179.31 63.98 177.84 62.3 177.84C60.62 177.84 59.85 179.31 59.85 180.95ZM126.41 180.95C126.41 182.59 127.18 184.04 128.86 184.04C130.54 184.04 131.31 182.59 131.31 180.95C131.31 179.31 130.54 177.84 128.86 177.84C127.18 177.84 126.41 179.31 126.41 180.95ZM135.36 180.9C135.36 182.65 136.17 184.04 137.75 184.04C139.26 184.04 140.09 182.76 140.09 180.9C140.09 179.07 139.28 177.84 137.75 177.84C136.15 177.84 135.36 179.18 135.36 180.9ZM189.82 180.95C189.82 182.59 190.59 184.04 192.27 184.04C193.95 184.04 194.72 182.59 194.72 180.95C194.72 179.31 193.95 177.84 192.27 177.84C190.59 177.84 189.82 179.31 189.82 180.95ZM204.23 180.95C204.23 182.59 204.99 184.04 206.68 184.04C208.36 184.04 209.13 182.59 209.13 180.95C209.13 179.31 208.36 177.84 206.68 177.84C204.99 177.84 204.23 179.31 204.23 180.95ZM213.18 180.84C213.18 182.55 213.98 183.74 215.56 183.74C217.07 183.74 217.9 182.65 217.9 180.84C217.9 179.07 217.09 177.84 215.56 177.84C213.96 177.84 213.18 179.18 213.18 180.84ZM239.06 177.84C237.53 177.84 236.72 179.07 236.72 180.9C236.72 182.76 237.55 184.04 239.06 184.04C240.64 184.04 241.45 182.65 241.45 180.9C241.45 179.18 240.66 177.84 239.06 177.84ZM85.42 182.74C85.42 183.61 86.14 184.06 87.14 184.06C88.63 184.06 89.44 183.06 89.44 182.03L89.44 180.88C89.23 181.14 87.8 181.29 87.27 181.35C86.29 181.48 85.42 181.78 85.42 182.74ZM227.9 182.74C227.9 183.61 228.62 184.06 229.62 184.06C231.11 184.06 231.92 183.06 231.92 182.03L231.92 180.88C231.71 181.14 230.28 181.29 229.75 181.35C228.77 181.48 227.9 181.78 227.9 182.74ZM102.53 183.51L103.89 183.51L103.81 184.08C103.62 185.29 103.08 186.93 102.83 187.66L101.87 187.66C102.01 186.98 102.31 185.54 102.46 184.1L102.53 183.51Z" fill="#767676" fill-opacity="1.000000" fill-rule="evenodd"/>
</svg>
