<svg width="310.000000" height="225.000000" viewBox="0 0 310 225" fill="none" xmlns="http://www.w3.org/2000/svg" xmlns:xlink="http://www.w3.org/1999/xlink">
	<desc>
			Created with Pixso.
	</desc>
	<defs>
		<clipPath id="clip2_6360">
			<rect id="Icons/Microphone" width="74.000000" height="74.000000" transform="translate(118.000000 25.000000)" fill="white" fill-opacity="0"/>
		</clipPath>
	</defs>
	<rect id="Rectangle 40" width="310.000000" height="225.000000" fill="#FFFFFF" fill-opacity="1.000000"/>
	<rect id="Icons/Microphone" width="74.000000" height="74.000000" transform="translate(118.000000 25.000000)" fill="#FFFFFF" fill-opacity="0"/>
	<rect id="Icons/Microphone" width="74.000000" height="74.000000" transform="translate(118.000000 25.000000)" fill="#FFFFFF" fill-opacity="0"/>
	<rect id="Icons/Microphone" width="74.000000" height="74.000000" transform="translate(118.000000 25.000000)" fill="#FFFFFF" fill-opacity="0"/>
	<rect id="Icons/Microphone" width="74.000000" height="74.000000" transform="translate(118.000000 25.000000)" fill="#FFFFFF" fill-opacity="0"/>
	<rect id="Icons/Microphone" width="74.000000" height="74.000000" transform="translate(118.000000 25.000000)" fill="#FFFFFF" fill-opacity="0"/>
	<g clip-path="url(#clip2_6360)">
		<path id="Vector" d="M155 25C147.01 25 140.52 31.75 140.52 40.05L140.52 62C140.52 70.3 147.01 77.05 155 77.05C162.98 77.05 169.47 70.3 169.47 62L169.47 40.05C169.47 31.75 162.98 25 155 25ZM155 73.83C149.31 73.83 144.6 69.37 143.85 63.6L166.14 63.6C165.39 69.37 160.68 73.83 155 73.83ZM166.26 60.39L143.73 60.39L143.73 40.05C143.73 33.52 148.78 28.21 155 28.21C161.2 28.21 166.26 33.52 166.26 40.05L166.26 60.39Z" fill="#FFB400" fill-opacity="1.000000" fill-rule="nonzero"/>
		<path id="Vector" d="M177.52 53.95C176.63 53.95 175.91 54.67 175.91 55.56L175.91 62C175.91 73.53 166.53 82.91 155 82.91C143.46 82.91 134.08 73.53 134.08 62L134.08 55.56C134.08 54.67 133.36 53.95 132.47 53.95C131.59 53.95 130.87 54.67 130.87 55.56L130.87 62C130.87 74.76 140.83 85.21 153.39 86.04L153.39 95.78L145.34 95.78C144.46 95.78 143.73 96.5 143.73 97.39C143.73 98.27 144.46 99 145.34 99L164.65 99C165.54 99 166.26 98.27 166.26 97.39C166.26 96.5 165.54 95.78 164.65 95.78L156.6 95.78L156.6 86.04C169.16 85.21 179.13 74.76 179.13 62L179.13 55.56C179.13 54.67 178.41 53.95 177.52 53.95Z" fill="#FFB400" fill-opacity="1.000000" fill-rule="nonzero"/>
	</g>
	<path id="sound design" d="M191.57 127.52C191.57 128.15 191.02 128.66 190.36 128.66C189.69 128.66 189.15 128.15 189.15 127.52C189.15 126.9 189.69 126.38 190.36 126.38C191.02 126.38 191.57 126.9 191.57 127.52ZM105.48 130.35L103.57 130.35C103.43 129.14 102.37 128.43 100.86 128.43C99.25 128.43 98.23 129.25 98.23 130.37C98.23 131.62 99.59 132.1 100.62 132.36L101.89 132.7C103.56 133.1 105.66 134.02 105.66 136.38C105.66 138.59 103.89 140.21 100.81 140.21C97.88 140.21 96.05 138.75 95.91 136.38L97.9 136.38C98.01 137.8 99.28 138.48 100.8 138.48C102.48 138.48 103.7 137.64 103.7 136.36C103.7 135.2 102.62 134.74 101.22 134.37L99.68 133.94C97.57 133.37 96.27 132.31 96.27 130.49C96.27 128.23 98.28 126.72 100.91 126.72C103.57 126.72 105.42 128.25 105.48 130.35ZM146.67 138.47C146.32 139.09 145.62 140.19 143.83 140.19C141.45 140.19 139.73 138.28 139.73 135.1C139.73 131.92 141.47 130.05 143.85 130.05C145.67 130.05 146.32 131.16 146.67 131.77L146.78 131.77L146.78 126.9L148.7 126.9L148.7 140L146.83 140L146.83 138.47L146.67 138.47ZM166.87 133.43C166.87 137.52 164.57 140 160.58 140L156.34 140L156.34 126.9L160.71 126.9C164.57 126.9 166.87 129.36 166.87 133.43ZM158.32 128.63L158.32 138.27L160.47 138.27C163.45 138.27 164.93 136.53 164.93 133.43C164.93 130.35 163.45 128.63 160.59 128.63L158.32 128.63ZM116.58 135.13C116.58 138.17 114.76 140.19 112 140.19C109.23 140.19 107.42 138.17 107.42 135.13C107.42 132.08 109.23 130.05 112 130.05C114.76 130.05 116.58 132.08 116.58 135.13ZM133.6 131.7C132.27 131.7 131.31 132.6 131.31 134.16L131.31 140L129.4 140L129.4 130.18L131.24 130.18L131.24 131.77L131.36 131.77C131.81 130.73 132.78 130.05 134.25 130.05C136.26 130.05 137.6 131.32 137.6 133.75L137.6 140L135.69 140L135.69 133.98C135.69 132.56 134.9 131.7 133.6 131.7ZM177.5 137.54C177.06 139.14 175.55 140.19 173.41 140.19C170.51 140.19 168.73 138.2 168.73 135.15C168.73 132.13 170.54 130.05 173.27 130.05C175.5 130.05 177.62 131.43 177.62 134.99L177.62 135.66L170.64 135.66C170.69 137.55 171.79 138.62 173.43 138.62C174.51 138.62 175.34 138.14 175.69 137.21L177.5 137.54ZM183.39 130.05C185.51 130.05 186.71 131.05 187.11 132.57L185.37 132.88C185.15 132.22 184.6 131.56 183.41 131.56C182.33 131.56 181.5 132.1 181.51 132.85C181.5 133.52 181.97 133.88 183.05 134.14L184.61 134.5C186.41 134.92 187.3 135.77 187.3 137.16C187.3 138.94 185.65 140.19 183.28 140.19C181.08 140.19 179.63 139.22 179.31 137.48L181.16 137.2C181.39 138.16 182.12 138.66 183.27 138.66C184.52 138.66 185.34 138.06 185.34 137.3C185.34 136.69 184.89 136.26 183.95 136.05L182.29 135.69C180.44 135.28 179.6 134.35 179.6 132.96C179.6 131.22 181.17 130.05 183.39 130.05ZM202.42 140.21C202.42 142.74 200.49 143.88 197.99 143.88C195.64 143.88 194.33 142.86 193.82 141.66L195.46 140.98C195.8 141.54 196.42 142.34 198.01 142.34C199.46 142.34 200.52 141.68 200.52 140.14L200.52 138.21L200.39 138.21C200.05 138.83 199.35 139.85 197.55 139.85C195.23 139.85 193.45 138.18 193.45 135.05C193.45 131.92 195.19 130.05 197.56 130.05C199.39 130.05 200.07 131.16 200.41 131.77L200.55 131.77L200.55 130.18L202.42 130.18L202.42 140.21ZM209.18 131.7C207.85 131.7 206.89 132.6 206.89 134.16L206.89 140L204.98 140L204.98 130.18L206.82 130.18L206.82 131.77L206.94 131.77C207.39 130.73 208.36 130.05 209.83 130.05C211.84 130.05 213.18 131.32 213.18 133.75L213.18 140L211.27 140L211.27 133.98C211.27 132.56 210.48 131.7 209.18 131.7ZM122.62 138.38C123.69 138.38 124.93 137.59 124.92 135.92L124.92 130.18L126.84 130.18L126.84 140L124.96 140L124.96 138.29L124.86 138.29C124.41 139.35 123.4 140.12 121.92 140.12C120.04 140.12 118.7 138.86 118.7 136.42L118.7 130.18L120.61 130.18L120.61 136.19C120.61 137.53 121.43 138.38 122.62 138.38ZM191.3 140L189.39 140L189.39 130.18L191.3 130.18L191.3 140ZM173.29 131.63C171.73 131.63 170.72 132.84 170.65 134.23L175.75 134.23C175.74 132.73 174.77 131.63 173.29 131.63ZM109.35 135.13C109.35 137.01 110.19 138.59 112.01 138.59C113.8 138.59 114.65 137.01 114.65 135.13C114.65 133.25 113.8 131.64 112.01 131.64C110.19 131.64 109.35 133.25 109.35 135.13ZM141.66 135.09C141.66 137.06 142.54 138.56 144.25 138.56C145.9 138.56 146.82 137.15 146.82 135.09C146.82 133.03 145.92 131.67 144.25 131.67C142.53 131.67 141.66 133.14 141.66 135.09ZM195.38 135.02C195.38 136.95 196.26 138.26 197.97 138.26C199.62 138.26 200.53 137.05 200.53 135.02C200.53 133.03 199.64 131.67 197.97 131.67C196.25 131.67 195.38 133.14 195.38 135.02Z" fill="#2B2B2B" fill-opacity="1.000000" fill-rule="evenodd"/>
	<path id="Voice Over, Beat Making" d="M89 165.6C89 166.07 88.59 166.45 88.1 166.45C87.61 166.45 87.21 166.07 87.21 165.6C87.21 165.13 87.61 164.75 88.1 164.75C88.59 164.75 89 165.13 89 165.6ZM222.98 165.6C222.98 166.07 222.57 166.45 222.08 166.45C221.59 166.45 221.18 166.07 221.18 165.6C221.18 165.13 221.59 164.75 222.08 164.75C222.57 164.75 222.98 165.13 222.98 165.6ZM116.91 164.94C119.7 164.94 121.72 167.09 121.72 170.54C121.72 173.99 119.7 176.15 116.91 176.15C114.12 176.15 112.09 173.99 112.09 170.54C112.09 167.09 114.12 164.94 116.91 164.94ZM67.61 165.09L68.99 165.09L72.23 174.27L72.36 174.27L75.6 165.09L76.98 165.09L72.98 176L71.61 176L67.61 165.09ZM158.97 176L155.03 176L155.03 165.09L158.84 165.09C161.12 165.09 162.19 166.39 162.19 167.98C162.19 169.39 161.36 170.01 160.42 170.26L160.42 170.37C161.42 170.43 162.61 171.37 162.61 173.1C162.61 174.74 161.55 176 158.97 176ZM191.66 176L191.66 165.09L193.23 165.09L196.94 174.14L197.07 174.14L200.77 165.09L202.35 165.09L202.35 176L201.11 176L201.11 167.71L201.01 167.71L197.6 176L196.41 176L193 167.71L192.89 167.71L192.89 176L191.66 176ZM214.54 176L213.28 176L213.28 165.09L214.54 165.09L214.54 171.46L214.69 171.46L218.27 167.81L219.82 167.81L216.36 171.31L220.08 176L218.48 176L215.42 172.12L214.54 172.93L214.54 176ZM183.62 167.81L185.37 167.81L185.37 168.88L183.62 168.88L183.62 173.65C183.62 174.72 184.15 174.89 184.71 174.89C184.99 174.89 185.16 174.85 185.26 174.82L185.52 175.95C185.35 176.02 185.05 176.1 184.58 176.1C183.52 176.1 182.36 175.42 182.36 173.99L182.36 168.88L181.13 168.88L181.13 167.81L182.36 167.81L182.36 165.86L183.62 165.86L183.62 167.81ZM116.91 174.91C118.89 174.91 120.45 173.37 120.45 170.54C120.45 167.71 118.89 166.17 116.91 166.17C114.93 166.17 113.37 167.71 113.37 170.54C113.37 173.37 114.93 174.91 116.91 174.91ZM156.35 166.26L156.35 169.88L158.8 169.88C159.99 169.88 160.93 169.14 160.93 167.98C160.93 167.03 160.29 166.26 158.84 166.26L156.35 166.26ZM142.11 176L140.86 176L140.86 167.81L142.07 167.81L142.07 169.05L142.16 169.05C142.46 168.24 143.31 167.69 144.29 167.69C144.48 167.69 144.81 167.7 144.95 167.71L144.95 168.99C144.86 168.96 144.52 168.9 144.18 168.9C142.99 168.9 142.11 169.71 142.11 170.82L142.11 176ZM85.55 171.95C85.55 174.48 84.06 176.17 81.84 176.17C79.62 176.17 78.13 174.48 78.13 171.95C78.13 169.39 79.62 167.71 81.84 167.71C84.06 167.71 85.55 169.39 85.55 171.95ZM97.56 173.61C97.35 175.06 96.16 176.17 94.35 176.17C92.04 176.17 90.64 174.4 90.64 171.95C90.64 169.45 92.11 167.71 94.32 167.71C96.05 167.71 97.35 168.73 97.56 170.26L96.31 170.26C96.12 169.52 95.45 168.84 94.35 168.84C92.87 168.84 91.9 170.05 91.9 171.9C91.9 173.8 92.86 175.04 94.35 175.04C95.32 175.04 96.07 174.51 96.31 173.61L97.56 173.61ZM106.09 174.1C105.7 175.34 104.49 176.17 102.83 176.17C100.46 176.17 99.01 174.48 99.01 171.97C99.01 169.45 100.48 167.71 102.7 167.71C104.4 167.71 106.21 168.75 106.21 171.8L106.21 172.33L100.27 172.33C100.33 174.08 101.35 175.04 102.83 175.04C103.81 175.04 104.55 174.61 104.87 173.76L106.09 174.1ZM138.81 174.1C138.43 175.34 137.22 176.17 135.55 176.17C133.19 176.17 131.74 174.48 131.74 171.97C131.74 169.45 133.21 167.71 135.42 167.71C137.13 167.71 138.94 168.75 138.94 171.8L138.94 172.33L133 172.33C133.06 174.08 134.08 175.04 135.55 175.04C136.54 175.04 137.28 174.61 137.6 173.76L138.81 174.1ZM171.31 174.1C170.92 175.34 169.71 176.17 168.05 176.17C165.68 176.17 164.23 174.48 164.23 171.97C164.23 169.45 165.7 167.71 167.92 167.71C169.62 167.71 171.43 168.75 171.43 171.8L171.43 172.33L165.49 172.33C165.55 174.08 166.57 175.04 168.05 175.04C169.03 175.04 169.77 174.61 170.09 173.76L171.31 174.1ZM178.19 174.89C177.93 175.42 177.19 176.19 175.76 176.19C174.2 176.19 172.97 175.27 172.97 173.67C172.97 171.8 174.63 171.46 176.14 171.26C177.64 171.07 178.25 171.13 178.25 170.52L178.25 170.48C178.25 169.43 177.68 168.81 176.53 168.81C175.33 168.81 174.67 169.45 174.4 170.05L173.2 169.62C173.84 168.13 175.25 167.71 176.48 167.71C177.53 167.71 179.51 168 179.51 170.6L179.51 176L178.25 176L178.25 174.89L178.19 174.89ZM209.66 174.89C209.4 175.42 208.66 176.19 207.23 176.19C205.67 176.19 204.44 175.27 204.44 173.67C204.44 171.8 206.1 171.46 207.61 171.26C209.11 171.07 209.72 171.13 209.72 170.52L209.72 170.48C209.72 169.43 209.15 168.81 208 168.81C206.8 168.81 206.14 169.45 205.87 170.05L204.67 169.62C205.31 168.13 206.72 167.71 207.95 167.71C209 167.71 210.98 168 210.98 170.6L210.98 176L209.72 176L209.72 174.89L209.66 174.89ZM228.35 168.84C227.14 168.84 226.26 169.65 226.26 171.07L226.26 176L225 176L225 167.81L226.21 167.81L226.21 169.09L226.32 169.09C226.71 168.26 227.47 167.71 228.71 167.71C230.36 167.71 231.48 168.71 231.48 170.8L231.48 176L230.22 176L230.22 170.88C230.22 169.6 229.51 168.84 228.35 168.84ZM240.62 176.23C240.62 178.34 239.04 179.23 237.08 179.23C235.25 179.23 234.25 178.45 233.74 177.59L234.74 176.89C235.07 177.34 235.59 178.13 237.08 178.13C238.4 178.13 239.36 177.51 239.36 176.15L239.36 174.48L239.25 174.48C238.98 174.93 238.47 175.87 236.87 175.87C234.89 175.87 233.39 174.42 233.39 171.86C233.39 169.35 234.82 167.71 236.89 167.71C238.49 167.71 239 168.69 239.27 169.11L239.4 169.11L239.4 167.81L240.62 167.81L240.62 176.23ZM88.72 176L87.46 176L87.46 167.81L88.72 167.81L88.72 176ZM129.1 167.81L130.46 167.81L127.44 176L126.16 176L123.13 167.81L124.5 167.81L126.76 174.33L126.84 174.33L129.1 167.81ZM222.7 176L221.44 176L221.44 167.81L222.7 167.81L222.7 176ZM79.39 171.95C79.39 173.59 80.15 175.04 81.84 175.04C83.52 175.04 84.29 173.59 84.29 171.95C84.29 170.31 83.52 168.84 81.84 168.84C80.15 168.84 79.39 170.31 79.39 171.95ZM102.7 168.84C101.26 168.84 100.36 169.97 100.27 171.25L104.94 171.25C104.94 169.86 104.06 168.84 102.7 168.84ZM135.42 168.84C133.99 168.84 133.09 169.97 133 171.25L137.66 171.25C137.66 169.86 136.79 168.84 135.42 168.84ZM167.92 168.84C166.48 168.84 165.58 169.97 165.49 171.25L170.16 171.25C170.16 169.86 169.28 168.84 167.92 168.84ZM234.65 171.84C234.65 173.55 235.46 174.74 237.04 174.74C238.55 174.74 239.38 173.65 239.38 171.84C239.38 170.07 238.57 168.84 237.04 168.84C235.44 168.84 234.65 170.18 234.65 171.84ZM156.35 171.03L156.35 174.82L158.97 174.82C160.69 174.82 161.36 174.06 161.36 173.1C161.36 171.99 160.46 171.03 159.03 171.03L156.35 171.03ZM174.23 173.74C174.23 174.61 174.95 175.06 175.95 175.06C177.44 175.06 178.25 174.06 178.25 173.03L178.25 171.88C178.04 172.14 176.61 172.29 176.08 172.35C175.1 172.48 174.23 172.78 174.23 173.74ZM205.7 173.74C205.7 174.61 206.42 175.06 207.42 175.06C208.91 175.06 209.72 174.06 209.72 173.03L209.72 171.88C209.51 172.14 208.08 172.29 207.55 172.35C206.57 172.48 205.7 172.78 205.7 173.74ZM146.95 174.51L148.32 174.51L148.23 175.08C148.05 176.29 147.51 177.93 147.25 178.66L146.29 178.66C146.43 177.98 146.73 176.54 146.89 175.1L146.95 174.51Z" fill="#767676" fill-opacity="1.000000" fill-rule="evenodd"/>
</svg>
