<svg width="310.000000" height="225.000000" viewBox="0 0 310 225" fill="none" xmlns="http://www.w3.org/2000/svg" xmlns:xlink="http://www.w3.org/1999/xlink">
	<desc>
			Created with Pixso.
	</desc>
	<defs>
		<clipPath id="clip2_6449">
			<rect id="Icons/illustration" width="76.000000" height="76.000000" transform="translate(121.000000 20.000000)" fill="white" fill-opacity="0"/>
		</clipPath>
	</defs>
	<rect id="Rectangle 39" width="310.000000" height="225.000000" fill="#FFFFFF" fill-opacity="1.000000"/>
	<rect id="Icons/illustration" width="68.000000" height="68.000000" transform="translate(121.000000 28.000000)" fill="#FFFFFF" fill-opacity="0"/>
	<rect id="Icons/illustration" width="68.000000" height="68.000000" transform="translate(121.000000 28.000000)" fill="#FFFFFF" fill-opacity="0"/>
	<rect id="Icons/illustration" width="76.000000" height="76.000000" transform="translate(121.000000 20.000000)" fill="#FFFFFF" fill-opacity="0"/>
	<rect id="Icons/illustration" width="76.000000" height="76.000000" transform="translate(121.000000 20.000000)" fill="#FFFFFF" fill-opacity="0"/>
	<rect id="Icons/illustration" width="76.000000" height="76.000000" transform="translate(121.000000 20.000000)" fill="#FFFFFF" fill-opacity="0"/>
	<g clip-path="url(#clip2_6449)">
		<path id="Vector" d="M156.32 75.14C155.71 75.14 155.21 75.64 155.21 76.25C155.21 76.87 155.71 77.36 156.32 77.36L161.67 77.36C162.28 77.36 162.78 76.87 162.78 76.25C162.78 75.64 162.28 75.14 161.67 75.14L156.32 75.14Z" fill="#FFB400" fill-opacity="1.000000" fill-rule="nonzero"/>
		<path id="Vector" d="M134.35 57.85L141.71 57.85C142.16 59.02 143.3 59.86 144.62 59.86C145.95 59.86 147.08 59.02 147.53 57.85L149 57.85C149.62 57.85 150.11 57.35 150.11 56.74C150.11 56.12 149.62 55.62 149 55.62L147.53 55.62C147.08 54.46 145.95 53.62 144.62 53.62C143.3 53.62 142.16 54.46 141.71 55.62L134.35 55.62C133.74 55.62 133.24 56.12 133.24 56.74C133.24 57.35 133.74 57.85 134.35 57.85ZM144.62 55.85C145.11 55.85 145.51 56.25 145.51 56.74C145.51 57.23 145.11 57.63 144.62 57.63C144.13 57.63 143.73 57.23 143.73 56.74C143.73 56.25 144.13 55.85 144.62 55.85Z" fill="#FFB400" fill-opacity="1.000000" fill-rule="nonzero"/>
		<path id="Vector" d="M134.35 51.47L135.78 51.47C136.23 52.64 137.36 53.47 138.68 53.47C140.01 53.47 141.14 52.64 141.59 51.47L149 51.47C149.62 51.47 150.11 50.97 150.11 50.36C150.11 49.74 149.62 49.24 149 49.24L141.59 49.24C141.14 48.07 140.01 47.24 138.68 47.24C137.36 47.24 136.23 48.07 135.78 49.24L134.35 49.24C133.74 49.24 133.24 49.74 133.24 50.36C133.24 50.97 133.74 51.47 134.35 51.47ZM138.68 49.46C139.17 49.46 139.58 49.86 139.58 50.36C139.58 50.85 139.17 51.25 138.68 51.25C138.19 51.25 137.79 50.85 137.79 50.36C137.79 49.86 138.19 49.46 138.68 49.46Z" fill="#FFB400" fill-opacity="1.000000" fill-rule="nonzero"/>
		<path id="Vector" d="M150.34 40.11C150.34 40.73 149.84 41.23 149.22 41.23C148.61 41.23 148.11 40.73 148.11 40.11C148.11 39.5 148.61 39 149.22 39C149.84 39 150.34 39.5 150.34 40.11Z" fill="#FFB400" fill-opacity="1.000000" fill-rule="evenodd"/>
		<path id="Vector" d="M147.27 40.11C147.27 40.73 146.77 41.23 146.16 41.23C145.54 41.23 145.04 40.73 145.04 40.11C145.04 39.5 145.54 39 146.16 39C146.77 39 147.27 39.5 147.27 40.11Z" fill="#FFB400" fill-opacity="1.000000" fill-rule="evenodd"/>
		<path id="Vector" d="M144.2 40.11C144.2 40.73 143.7 41.23 143.09 41.23C142.47 41.23 141.97 40.73 141.97 40.11C141.97 39.5 142.47 39 143.09 39C143.7 39 144.2 39.5 144.2 40.11Z" fill="#FFB400" fill-opacity="1.000000" fill-rule="evenodd"/>
		<path id="Vector" d="M193.66 27.49L193.24 27.49L193.55 27.18C194.48 26.25 194.48 24.73 193.55 23.8L191.11 21.36C190.18 20.43 188.67 20.43 187.73 21.36L181.61 27.49L124.34 27.49C122.49 27.49 121 28.99 121 30.83L121 77.06C121 79.31 122.83 81.14 125.08 81.14L151.45 81.14L151.45 89.02L146.08 89.02C144.65 89.02 143.48 90.18 143.48 91.62L143.48 92.73C143.48 94.16 144.65 95.33 146.08 95.33L171.91 95.33C173.34 95.33 174.51 94.16 174.51 92.73L174.51 91.62C174.51 90.18 173.34 89.02 171.91 89.02L166.54 89.02L166.54 81.14L178.44 81.14C179.06 81.14 179.55 80.64 179.55 80.03C179.55 79.41 179.06 78.92 178.44 78.92L125.08 78.92C124.05 78.92 123.22 78.08 123.22 77.06L123.22 73.77L194.77 73.77L194.77 77.06C194.77 78.08 193.94 78.92 192.91 78.92L183.64 78.92C183.02 78.92 182.52 79.41 182.52 80.03C182.52 80.64 183.02 81.14 183.64 81.14L192.91 81.14C195.16 81.14 197 79.31 197 77.06L197 30.83C197 28.99 195.5 27.49 193.66 27.49ZM171.91 91.25C172.11 91.25 172.28 91.41 172.28 91.62L172.28 92.73C172.28 92.93 172.11 93.1 171.91 93.1L146.08 93.1C145.88 93.1 145.71 92.93 145.71 92.73L145.71 91.62C145.71 91.41 145.88 91.25 146.08 91.25L171.91 91.25ZM153.67 81.14L164.32 81.14L164.32 89.02L153.67 89.02L153.67 81.14ZM189.31 22.94C189.37 22.87 189.47 22.87 189.54 22.94L191.97 25.37C192.04 25.44 192.04 25.54 191.97 25.6L189.65 27.93L186.98 25.26L189.31 22.94ZM185.41 26.84L188.08 29.5L187.3 30.28L184.63 27.61L185.41 26.84ZM183.06 29.19L185.72 31.85L172.55 45.03L169.88 42.36L183.06 29.19ZM181.41 39.37C182.92 39.37 184.16 40.6 184.16 42.11C184.16 43.63 182.92 44.86 181.41 44.86C179.9 44.86 178.66 43.63 178.66 42.11C178.66 42.09 178.67 42.08 178.67 42.06L181.36 39.37C181.37 39.37 181.39 39.37 181.41 39.37ZM170.62 46.24L167.32 47.59L168.67 44.29L170.62 46.24ZM194.77 71.54L123.22 71.54L123.22 30.83C123.22 30.21 123.72 29.72 124.34 29.72L179.38 29.72L177.68 31.41L139.85 31.41C139.23 31.41 138.73 31.91 138.73 32.53C138.73 33.14 139.23 33.64 139.85 33.64L175.46 33.64L167.6 41.49C167.38 41.72 167.21 41.98 167.09 42.27L164.6 48.36C164.38 48.92 164.5 49.55 164.93 49.98C165.22 50.27 165.6 50.42 165.99 50.42C166.18 50.42 166.37 50.38 166.55 50.31L172.64 47.82C172.93 47.71 173.18 47.54 173.4 47.32L176.79 43.94C177.52 45.78 179.31 47.08 181.41 47.08C184.15 47.08 186.38 44.85 186.38 42.11C186.38 40.02 185.08 38.22 183.24 37.49L187.09 33.64L190.84 33.64L190.84 67.62L190.25 67.62L186.22 60.63C185.91 60.1 185.23 59.91 184.7 60.22C184.17 60.53 183.98 61.21 184.29 61.74L187.68 67.62L172.13 67.62L170.46 64.73L178.24 51.26L181.69 57.24C182 57.77 182.68 57.96 183.22 57.65C183.75 57.34 183.93 56.66 183.62 56.13L179.94 49.75C179.58 49.13 178.95 48.77 178.24 48.77C177.53 48.77 176.9 49.13 176.54 49.75L169.18 62.5L159.73 46.13C159.38 45.52 158.74 45.15 158.03 45.15C157.32 45.15 156.69 45.52 156.33 46.13L153.82 50.48L153.82 38.55C153.82 37.12 152.66 35.95 151.23 35.95L132.13 35.95C130.7 35.95 129.53 37.12 129.53 38.55L129.53 62.89C129.53 63.92 130.36 64.75 131.39 64.75L145.59 64.75L143.93 67.62L127.15 67.62L127.15 33.64L134.65 33.64C135.27 33.64 135.77 33.14 135.77 32.53C135.77 31.91 135.27 31.41 134.65 31.41L126.78 31.41C125.75 31.41 124.92 32.25 124.92 33.27L124.92 67.99C124.92 69.01 125.75 69.84 126.78 69.84L191.22 69.84C192.24 69.84 193.07 69.01 193.07 67.99L193.07 33.27C193.07 32.25 192.24 31.41 191.22 31.41L189.31 31.41L191.01 29.72L193.66 29.72C194.27 29.72 194.77 30.21 194.77 30.83L194.77 71.54ZM151.6 44.71L151.6 62.52L131.76 62.52L131.76 44.71L151.6 44.71ZM131.76 42.49L131.76 38.55C131.76 38.34 131.92 38.18 132.13 38.18L151.23 38.18C151.43 38.18 151.6 38.34 151.6 38.55L151.6 42.49L131.76 42.49ZM148.16 64.75L151.97 64.75C152.99 64.75 153.83 63.92 153.83 62.89L153.83 60.53C154.1 60.67 154.41 60.74 154.74 60.74C155.5 60.74 156.18 60.35 156.56 59.69L158.45 56.41C158.51 56.31 158.6 56.29 158.66 56.29C158.72 56.29 158.81 56.31 158.87 56.41L160.04 58.43C160.42 59.09 161.1 59.48 161.86 59.48C162.62 59.48 163.3 59.09 163.68 58.43L163.97 57.93L169.56 67.62L146.5 67.62L148.16 64.75ZM153.83 56.81L153.83 54.94L158.03 47.65L162.68 55.7L161.86 57.13L160.8 55.29C160.35 54.52 159.55 54.06 158.66 54.06C157.77 54.06 156.97 54.52 156.52 55.29L154.74 58.39L153.83 56.81Z" fill="#FFB400" fill-opacity="1.000000" fill-rule="nonzero"/>
	</g>
	<path id="uI/uX design" d="M119.69 126.29L121.39 126.29L117.18 141.96L115.47 141.96L119.69 126.29ZM188.44 127.52C188.44 128.15 187.89 128.66 187.23 128.66C186.57 128.66 186.02 128.15 186.02 127.52C186.02 126.9 186.57 126.38 187.23 126.38C187.89 126.38 188.44 126.9 188.44 127.52ZM106.85 135.35L106.85 126.9L108.83 126.9L108.83 135.51C108.83 138.26 106.77 140.21 103.63 140.21C100.49 140.21 98.43 138.26 98.43 135.51L98.43 126.9L100.41 126.9L100.41 135.35C100.41 137.13 101.64 138.41 103.63 138.41C105.63 138.41 106.85 137.13 106.85 135.35ZM111.71 126.9L113.69 126.9L113.69 140L111.71 140L111.71 126.9ZM131.6 135.35L131.6 126.9L133.58 126.9L133.58 135.51C133.58 138.26 131.51 140.21 128.37 140.21C125.24 140.21 123.18 138.26 123.18 135.51L123.18 126.9L125.15 126.9L125.15 135.35C125.15 137.13 126.38 138.41 128.37 138.41C130.37 138.41 131.6 137.13 131.6 135.35ZM135.54 126.9L137.83 126.9L140.96 132.02L141.06 132.02L144.2 126.9L146.48 126.9L142.4 133.45L146.51 140L144.21 140L141.06 134.95L140.96 134.95L137.81 140L135.51 140L139.69 133.45L135.54 126.9ZM163.75 133.43C163.75 137.52 161.44 140 157.45 140L153.21 140L153.21 126.9L157.58 126.9C161.44 126.9 163.75 129.36 163.75 133.43ZM155.19 128.63L155.19 138.27L157.34 138.27C160.33 138.27 161.8 136.53 161.8 133.43C161.8 130.35 160.33 128.63 157.47 128.63L155.19 128.63ZM174.37 137.54C173.94 139.14 172.42 140.19 170.28 140.19C167.38 140.19 165.61 138.2 165.61 135.15C165.61 132.13 167.41 130.05 170.15 130.05C172.37 130.05 174.49 131.43 174.49 134.99L174.49 135.66L167.51 135.66C167.56 137.55 168.66 138.62 170.3 138.62C171.39 138.62 172.22 138.14 172.56 137.21L174.37 137.54ZM180.26 130.05C182.39 130.05 183.58 131.05 183.98 132.57L182.24 132.88C182.02 132.22 181.47 131.56 180.28 131.56C179.2 131.56 178.38 132.1 178.39 132.85C178.38 133.52 178.85 133.88 179.92 134.14L181.48 134.5C183.29 134.92 184.17 135.77 184.17 137.16C184.17 138.94 182.53 140.19 180.16 140.19C177.95 140.19 176.51 139.22 176.18 137.48L178.03 137.2C178.26 138.16 179 138.66 180.14 138.66C181.4 138.66 182.21 138.06 182.21 137.3C182.21 136.69 181.77 136.26 180.82 136.05L179.16 135.69C177.32 135.28 176.47 134.35 176.47 132.96C176.47 131.22 178.05 130.05 180.26 130.05ZM199.29 140.21C199.29 142.74 197.36 143.88 194.86 143.88C192.52 143.88 191.21 142.86 190.69 141.66L192.33 140.98C192.67 141.54 193.29 142.34 194.88 142.34C196.34 142.34 197.39 141.68 197.39 140.14L197.39 138.21L197.27 138.21C196.92 138.83 196.23 139.85 194.42 139.85C192.1 139.85 190.32 138.18 190.32 135.05C190.32 131.92 192.06 130.05 194.44 130.05C196.27 130.05 196.94 131.16 197.28 131.77L197.42 131.77L197.42 130.18L199.29 130.18L199.29 140.21ZM206.06 131.7C204.73 131.7 203.77 132.6 203.77 134.16L203.77 140L201.86 140L201.86 130.18L203.69 130.18L203.69 131.77L203.81 131.77C204.27 130.73 205.23 130.05 206.71 130.05C208.72 130.05 210.05 131.32 210.05 133.75L210.05 140L208.14 140L208.14 133.98C208.14 132.56 207.35 131.7 206.06 131.7ZM188.18 140L186.27 140L186.27 130.18L188.18 130.18L188.18 140ZM170.16 131.63C168.6 131.63 167.59 132.84 167.52 134.23L172.62 134.23C172.61 132.73 171.64 131.63 170.16 131.63ZM192.25 135.02C192.25 136.95 193.14 138.26 194.85 138.26C196.49 138.26 197.41 137.05 197.41 135.02C197.41 133.03 196.51 131.67 194.85 131.67C193.12 131.67 192.25 133.14 192.25 135.02Z" fill="#2B2B2B" fill-opacity="1.000000" fill-rule="evenodd"/>
	<path id="Mobile app, website design" d="M89.56 165.6C89.56 166.07 89.16 166.45 88.67 166.45C88.18 166.45 87.77 166.07 87.77 165.6C87.77 165.13 88.18 164.75 88.67 164.75C89.16 164.75 89.56 165.13 89.56 165.6ZM186.59 165.6C186.59 166.07 186.19 166.45 185.7 166.45C185.21 166.45 184.8 166.07 184.8 165.6C184.8 165.13 185.21 164.75 185.7 164.75C186.19 164.75 186.59 165.13 186.59 165.6ZM235.92 165.6C235.92 166.07 235.52 166.45 235.02 166.45C234.53 166.45 234.13 166.07 234.13 165.6C234.13 165.13 234.53 164.75 235.02 164.75C235.52 164.75 235.92 165.13 235.92 165.6ZM56.6 176L56.6 165.09L58.18 165.09L61.89 174.14L62.01 174.14L65.72 165.09L67.29 165.09L67.29 176L66.06 176L66.06 167.71L65.95 167.71L62.54 176L61.35 176L57.94 167.71L57.84 167.71L57.84 176L56.6 176ZM80.1 176L78.89 176L78.89 165.09L80.14 165.09L80.14 169.11L80.25 169.11C80.53 168.69 81.02 167.71 82.62 167.71C84.68 167.71 86.11 169.35 86.11 171.93C86.11 174.53 84.68 176.17 82.64 176.17C81.06 176.17 80.53 175.19 80.25 174.74L80.1 174.74L80.1 176ZM91.59 165.09L92.84 165.09L92.84 176L91.59 176L91.59 165.09ZM109.82 172.9L108.72 176L107.33 176L111.34 165.09L112.7 165.09L116.71 176L115.32 176L114.23 172.9L109.82 172.9ZM148.45 176L147.09 176L144.11 165.09L145.45 165.09L147.73 173.97L147.83 173.97L150.16 165.09L151.65 165.09L153.97 173.97L154.08 173.97L156.36 165.09L157.7 165.09L154.72 176L153.35 176L150.95 167.3L150.86 167.3L148.45 176ZM169.29 176L168.08 176L168.08 165.09L169.33 165.09L169.33 169.11L169.44 169.11C169.72 168.69 170.21 167.71 171.81 167.71C173.87 167.71 175.3 169.35 175.3 171.93C175.3 174.53 173.87 176.17 171.83 176.17C170.25 176.17 169.72 175.19 169.44 174.74L169.29 174.74L169.29 176ZM215.76 170.52C215.76 173.93 213.89 176 210.56 176L207.2 176L207.2 165.09L210.71 165.09C213.89 165.09 215.76 167.13 215.76 170.52ZM190.43 167.81L192.18 167.81L192.18 168.88L190.43 168.88L190.43 173.65C190.43 174.72 190.96 174.89 191.51 174.89C191.79 174.89 191.96 174.85 192.07 174.82L192.33 175.95C192.15 176.02 191.86 176.1 191.39 176.1C190.32 176.1 189.17 175.42 189.17 173.99L189.17 168.88L187.94 168.88L187.94 167.81L189.17 167.81L189.17 165.86L190.43 165.86L190.43 167.81ZM208.52 166.26L208.52 174.82L210.48 174.82C213.19 174.82 214.49 173.18 214.49 170.52C214.49 167.88 213.19 166.26 210.63 166.26L208.52 166.26ZM111.98 166.81L110.23 171.73L113.81 171.73L112.06 166.81L111.98 166.81ZM76.8 171.95C76.8 174.48 75.31 176.17 73.09 176.17C70.88 176.17 69.38 174.48 69.38 171.95C69.38 169.39 70.88 167.71 73.09 167.71C75.31 167.71 76.8 169.39 76.8 171.95ZM101.83 174.1C101.45 175.34 100.24 176.17 98.57 176.17C96.21 176.17 94.76 174.48 94.76 171.97C94.76 169.45 96.23 167.71 98.45 167.71C100.15 167.71 101.96 168.75 101.96 171.8L101.96 172.33L96.02 172.33C96.08 174.08 97.1 175.04 98.57 175.04C99.56 175.04 100.3 174.61 100.62 173.76L101.83 174.1ZM119.5 179.06L118.24 179.06L118.24 167.81L119.46 167.81L119.46 169.11L119.61 169.11C119.88 168.69 120.37 167.71 121.97 167.71C124.04 167.71 125.47 169.35 125.47 171.93C125.47 174.53 124.04 176.17 121.99 176.17C120.42 176.17 119.88 175.19 119.61 174.74L119.5 174.74L119.5 179.06ZM128.64 179.06L127.38 179.06L127.38 167.81L128.6 167.81L128.6 169.11L128.75 169.11C129.02 168.69 129.51 167.71 131.11 167.71C133.18 167.71 134.61 169.35 134.61 171.93C134.61 174.53 133.18 176.17 131.13 176.17C129.56 176.17 129.02 175.19 128.75 174.74L128.64 174.74L128.64 179.06ZM165.86 174.1C165.48 175.34 164.26 176.17 162.6 176.17C160.24 176.17 158.79 174.48 158.79 171.97C158.79 169.45 160.26 167.71 162.47 167.71C164.18 167.71 165.99 168.75 165.99 171.8L165.99 172.33L160.05 172.33C160.11 174.08 161.13 175.04 162.6 175.04C163.59 175.04 164.33 174.61 164.65 173.76L165.86 174.1ZM180.11 167.71C181.74 167.71 182.62 168.48 183.01 169.65L181.88 169.96C181.67 169.4 181.21 168.79 180.11 168.79C179.11 168.79 178.37 169.3 178.37 170.01C178.37 170.64 178.81 170.96 179.77 171.2L180.99 171.5C182.45 171.86 183.16 172.58 183.16 173.71C183.16 175.13 181.87 176.17 179.97 176.17C178.29 176.17 177.15 175.42 176.86 174.04L178.05 173.74C178.27 174.61 178.92 175.06 179.95 175.06C181.12 175.06 181.87 174.48 181.87 173.78C181.87 173.22 181.47 172.82 180.65 172.63L179.29 172.31C177.78 171.96 177.11 171.2 177.11 170.07C177.11 168.69 178.39 167.71 180.11 167.71ZM200.76 174.1C200.38 175.34 199.17 176.17 197.5 176.17C195.14 176.17 193.69 174.48 193.69 171.97C193.69 169.45 195.16 167.71 197.37 167.71C199.08 167.71 200.89 168.75 200.89 171.8L200.89 172.33L194.95 172.33C195.01 174.08 196.03 175.04 197.5 175.04C198.49 175.04 199.23 174.61 199.55 173.76L200.76 174.1ZM224.5 174.1C224.11 175.34 222.9 176.17 221.24 176.17C218.87 176.17 217.42 174.48 217.42 171.97C217.42 169.45 218.89 167.71 221.11 167.71C222.81 167.71 224.63 168.75 224.63 171.8L224.63 172.33L218.69 172.33C218.74 174.08 219.76 175.04 221.24 175.04C222.22 175.04 222.96 174.61 223.28 173.76L224.5 174.1ZM229.44 167.71C231.06 167.71 231.94 168.48 232.34 169.65L231.21 169.96C230.99 169.4 230.54 168.79 229.44 168.79C228.44 168.79 227.69 169.3 227.69 170.01C227.69 170.64 228.13 170.96 229.1 171.2L230.32 171.5C231.78 171.86 232.49 172.58 232.49 173.71C232.49 175.13 231.19 176.17 229.29 176.17C227.62 176.17 226.47 175.42 226.18 174.04L227.37 173.74C227.6 174.61 228.24 175.06 229.27 175.06C230.44 175.06 231.19 174.48 231.19 173.78C231.19 173.22 230.8 172.82 229.97 172.63L228.61 172.31C227.11 171.96 226.44 171.2 226.44 170.07C226.44 168.69 227.71 167.71 229.44 167.71ZM244.78 176.23C244.78 178.34 243.2 179.23 241.25 179.23C239.42 179.23 238.41 178.45 237.9 177.59L238.9 176.89C239.24 177.34 239.76 178.13 241.25 178.13C242.57 178.13 243.53 177.51 243.53 176.15L243.53 174.48L243.42 174.48C243.14 174.93 242.63 175.87 241.03 175.87C239.05 175.87 237.56 174.42 237.56 171.86C237.56 169.35 238.99 167.71 241.06 167.71C242.65 167.71 243.16 168.69 243.44 169.11L243.57 169.11L243.57 167.81L244.78 167.81L244.78 176.23ZM250.43 168.84C249.23 168.84 248.34 169.65 248.34 171.07L248.34 176L247.08 176L247.08 167.81L248.3 167.81L248.3 169.09L248.4 169.09C248.79 168.26 249.55 167.71 250.79 167.71C252.45 167.71 253.56 168.71 253.56 170.8L253.56 176L252.31 176L252.31 170.88C252.31 169.6 251.59 168.84 250.43 168.84ZM89.28 176L88.03 176L88.03 167.81L89.28 167.81L89.28 176ZM186.31 176L185.06 176L185.06 167.81L186.31 167.81L186.31 176ZM235.64 176L234.38 176L234.38 167.81L235.64 167.81L235.64 176ZM70.64 171.95C70.64 173.59 71.41 175.04 73.09 175.04C74.77 175.04 75.54 173.59 75.54 171.95C75.54 170.31 74.77 168.84 73.09 168.84C71.41 168.84 70.64 170.31 70.64 171.95ZM82.47 168.84C80.93 168.84 80.12 170.07 80.12 171.9C80.12 173.76 80.95 175.04 82.47 175.04C84.04 175.04 84.85 173.65 84.85 171.9C84.85 170.18 84.07 168.84 82.47 168.84ZM98.45 168.84C97.01 168.84 96.11 169.97 96.02 171.25L100.68 171.25C100.68 169.86 99.81 168.84 98.45 168.84ZM121.82 168.84C120.29 168.84 119.48 170.07 119.48 171.9C119.48 173.76 120.31 175.04 121.82 175.04C123.4 175.04 124.21 173.65 124.21 171.9C124.21 170.18 123.42 168.84 121.82 168.84ZM130.96 168.84C129.43 168.84 128.62 170.07 128.62 171.9C128.62 173.76 129.45 175.04 130.96 175.04C132.54 175.04 133.35 173.65 133.35 171.9C133.35 170.18 132.56 168.84 130.96 168.84ZM162.47 168.84C161.03 168.84 160.13 169.97 160.05 171.25L164.71 171.25C164.71 169.86 163.84 168.84 162.47 168.84ZM171.66 168.84C170.12 168.84 169.31 170.07 169.31 171.9C169.31 173.76 170.14 175.04 171.66 175.04C173.24 175.04 174.04 173.65 174.04 171.9C174.04 170.18 173.26 168.84 171.66 168.84ZM197.37 168.84C195.94 168.84 195.03 169.97 194.95 171.25L199.61 171.25C199.61 169.86 198.74 168.84 197.37 168.84ZM221.11 168.84C219.67 168.84 218.77 169.97 218.69 171.25L223.35 171.25C223.35 169.86 222.47 168.84 221.11 168.84ZM238.82 171.84C238.82 173.55 239.63 174.74 241.2 174.74C242.71 174.74 243.55 173.65 243.55 171.84C243.55 170.07 242.74 168.84 241.2 168.84C239.6 168.84 238.82 170.18 238.82 171.84ZM137.03 174.51L138.4 174.51L138.31 175.08C138.13 176.29 137.59 177.93 137.33 178.66L136.37 178.66C136.51 177.98 136.81 176.54 136.97 175.1L137.03 174.51Z" fill="#767676" fill-opacity="1.000000" fill-rule="evenodd"/>
</svg>
