<svg width="310.000000" height="225.000000" viewBox="0 0 310 225" fill="none" xmlns="http://www.w3.org/2000/svg" xmlns:xlink="http://www.w3.org/1999/xlink">
	<desc>
			Created with Pixso.
	</desc>
	<defs>
		<clipPath id="clip2_6547">
			<rect id="Icons/coding" width="68.000000" height="68.000000" transform="translate(121.000000 28.000000)" fill="white" fill-opacity="0"/>
		</clipPath>
	</defs>
	<rect id="Rectangle 38" width="310.000000" height="225.000000" fill="#FFFFFF" fill-opacity="1.000000"/>
	<rect id="Icons/coding" width="68.000000" height="68.000000" transform="translate(121.000000 28.000000)" fill="#FFFFFF" fill-opacity="0"/>
	<rect id="Icons/coding" width="68.000000" height="68.000000" transform="translate(121.000000 28.000000)" fill="#FFFFFF" fill-opacity="0"/>
	<rect id="Icons/coding" width="68.000000" height="68.000000" transform="translate(121.000000 28.000000)" fill="#FFFFFF" fill-opacity="0"/>
	<rect id="Icons/coding" width="68.000000" height="68.000000" transform="translate(121.000000 28.000000)" fill="#FFFFFF" fill-opacity="0"/>
	<rect id="Icons/coding" width="68.000000" height="68.000000" transform="translate(121.000000 28.000000)" fill="#FFFFFF" fill-opacity="0"/>
	<g clip-path="url(#clip2_6547)">
		<path id="Vector" d="M184.21 35.43L125.78 35.43C124.79 35.43 123.85 35.83 123.15 36.52C122.45 37.22 122.06 38.17 122.06 39.15L122.06 76.34C122.06 77.32 122.45 78.27 123.15 78.97C123.85 79.66 124.79 80.06 125.78 80.06L147.05 80.06L145.78 83.25L140.12 83.25C139.84 83.25 139.57 83.36 139.37 83.56C139.17 83.76 139.06 84.03 139.06 84.31L139.06 86.43L132.68 86.43C132.4 86.43 132.13 86.54 131.93 86.74C131.73 86.94 131.62 87.21 131.62 87.5C131.62 87.78 131.73 88.05 131.93 88.25C132.13 88.45 132.4 88.56 132.68 88.56L177.31 88.56C177.59 88.56 177.86 88.45 178.06 88.25C178.26 88.05 178.37 87.78 178.37 87.5C178.37 87.21 178.26 86.94 178.06 86.74C177.86 86.54 177.59 86.43 177.31 86.43L170.93 86.43L170.93 84.31C170.93 84.03 170.82 83.76 170.62 83.56C170.42 83.36 170.15 83.25 169.87 83.25L164.22 83.25L162.94 80.06L184.21 80.06C185.2 80.06 186.15 79.66 186.84 78.97C187.54 78.27 187.93 77.32 187.93 76.34L187.93 39.15C187.93 38.17 187.54 37.22 186.84 36.52C186.15 35.83 185.2 35.43 184.21 35.43ZM168.81 85.37L168.81 86.43L141.18 86.43L141.18 85.37L168.81 85.37ZM148.07 83.25L149.34 80.06L160.65 80.06L161.92 83.25L148.07 83.25ZM185.81 76.34C185.81 76.76 185.64 77.17 185.34 77.47C185.04 77.76 184.64 77.93 184.21 77.93L125.78 77.93C125.35 77.93 124.95 77.76 124.65 77.47C124.35 77.17 124.18 76.76 124.18 76.34L124.18 73.68L185.81 73.68L185.81 76.34ZM185.81 71.56L124.18 71.56L124.18 39.15C124.18 38.73 124.35 38.32 124.65 38.02C124.95 37.73 125.35 37.56 125.78 37.56L184.21 37.56C184.64 37.56 185.04 37.73 185.34 38.02C185.64 38.32 185.81 38.73 185.81 39.15L185.81 71.56Z" fill="#FFB400" fill-opacity="1.000000" fill-rule="nonzero"/>
		<path id="Vector" d="M150.16 62.88C150.28 62.96 150.41 63.01 150.55 63.04C150.68 63.06 150.83 63.06 150.96 63.04C151.1 63.01 151.23 62.95 151.34 62.87C151.46 62.79 151.56 62.69 151.63 62.58L160 49.83C160.16 49.59 160.21 49.3 160.15 49.03C160.1 48.75 159.93 48.51 159.7 48.36C159.46 48.2 159.17 48.15 158.9 48.2C158.62 48.26 158.38 48.43 158.22 48.66L149.86 61.41C149.78 61.53 149.73 61.66 149.7 61.8C149.67 61.93 149.68 62.07 149.7 62.21C149.73 62.35 149.79 62.48 149.87 62.59C149.95 62.71 150.05 62.81 150.16 62.88Z" fill="#FFB400" fill-opacity="1.000000" fill-rule="nonzero"/>
		<path id="Vector" d="M161.75 62.81C161.97 62.99 162.25 63.08 162.53 63.05C162.81 63.03 163.07 62.89 163.25 62.67L168.56 56.3C168.72 56.11 168.81 55.87 168.81 55.62C168.81 55.37 168.72 55.13 168.56 54.94L163.25 48.56C163.16 48.46 163.05 48.37 162.93 48.3C162.8 48.24 162.67 48.2 162.53 48.18C162.39 48.17 162.25 48.18 162.11 48.23C161.98 48.27 161.86 48.33 161.75 48.42C161.64 48.51 161.55 48.62 161.49 48.75C161.42 48.87 161.38 49.01 161.37 49.15C161.36 49.29 161.37 49.43 161.42 49.56C161.46 49.69 161.53 49.82 161.62 49.92L166.36 55.62L161.62 61.31C161.44 61.53 161.35 61.81 161.37 62.09C161.4 62.37 161.54 62.63 161.75 62.81Z" fill="#FFB400" fill-opacity="1.000000" fill-rule="nonzero"/>
		<path id="Vector" d="M146.74 62.67C146.83 62.78 146.94 62.87 147.06 62.94C147.19 63 147.32 63.04 147.46 63.06C147.6 63.07 147.74 63.06 147.88 63.01C148.01 62.97 148.13 62.91 148.24 62.82C148.35 62.73 148.44 62.62 148.5 62.49C148.57 62.37 148.61 62.23 148.62 62.09C148.63 61.95 148.62 61.81 148.58 61.68C148.53 61.55 148.46 61.42 148.37 61.31L143.63 55.62L148.37 49.92C148.46 49.82 148.53 49.69 148.58 49.56C148.62 49.43 148.63 49.29 148.62 49.15C148.61 49.01 148.57 48.87 148.5 48.75C148.44 48.62 148.35 48.51 148.24 48.42C148.13 48.33 148.01 48.27 147.88 48.23C147.74 48.18 147.6 48.17 147.46 48.18C147.32 48.2 147.19 48.24 147.06 48.3C146.94 48.37 146.83 48.46 146.74 48.56L141.43 54.94C141.27 55.13 141.18 55.37 141.18 55.62C141.18 55.87 141.27 56.11 141.43 56.3L146.74 62.67Z" fill="#FFB400" fill-opacity="1.000000" fill-rule="nonzero"/>
	</g>
	<path id="web development" d="M81.99 140L80 140L76.36 126.9L78.44 126.9L80.99 137.04L81.11 137.04L83.77 126.9L85.83 126.9L88.48 137.05L88.6 137.05L91.14 126.9L93.23 126.9L89.59 140L87.6 140L84.85 130.19L84.74 130.19L81.99 140ZM106.51 140L104.64 140L104.64 126.9L106.56 126.9L106.56 131.77L106.67 131.77C107.01 131.16 107.67 130.05 109.49 130.05C111.86 130.05 113.61 131.92 113.61 135.1C113.61 138.28 111.89 140.19 109.51 140.19C107.72 140.19 107.02 139.09 106.67 138.47L106.51 138.47L106.51 140ZM131.21 133.43C131.21 137.52 128.9 140 124.92 140L120.67 140L120.67 126.9L125.05 126.9C128.9 126.9 131.21 129.36 131.21 133.43ZM164.21 126.9L166.12 126.9L166.12 140L164.21 140L164.21 126.9ZM230.44 130.18L232.45 130.18L232.45 131.71L230.44 131.71L230.44 137.11C230.44 138.22 231 138.42 231.62 138.42C231.93 138.42 232.16 138.37 232.29 138.34L232.63 139.92C232.41 140 232 140.12 231.39 140.12C229.89 140.15 228.52 139.29 228.53 137.51L228.53 131.71L227.09 131.71L227.09 130.18L228.53 130.18L228.53 127.83L230.44 127.83L230.44 130.18ZM122.65 128.63L122.65 138.27L124.81 138.27C127.79 138.27 129.27 136.53 129.27 133.43C129.27 130.35 127.79 128.63 124.93 128.63L122.65 128.63ZM102.24 137.54C101.81 139.14 100.29 140.19 98.15 140.19C95.25 140.19 93.48 138.2 93.48 135.15C93.48 132.13 95.28 130.05 98.02 130.05C100.24 130.05 102.36 131.43 102.36 134.99L102.36 135.66L95.38 135.66C95.43 137.55 96.53 138.62 98.17 138.62C99.26 138.62 100.09 138.14 100.43 137.21L102.24 137.54ZM141.83 137.54C141.4 139.14 139.89 140.19 137.74 140.19C134.85 140.19 133.07 138.2 133.07 135.15C133.07 132.13 134.87 130.05 137.61 130.05C139.83 130.05 141.96 131.43 141.96 134.99L141.96 135.66L134.97 135.66C135.03 137.55 136.12 138.62 137.76 138.62C138.85 138.62 139.68 138.14 140.03 137.21L141.83 137.54ZM161.96 137.54C161.53 139.14 160.01 140.19 157.87 140.19C154.97 140.19 153.2 138.2 153.2 135.15C153.2 132.13 155 130.05 157.74 130.05C159.96 130.05 162.08 131.43 162.08 134.99L162.08 135.66L155.1 135.66C155.15 137.55 156.25 138.62 157.89 138.62C158.98 138.62 159.81 138.14 160.16 137.21L161.96 137.54ZM177.41 135.13C177.41 138.17 175.6 140.19 172.83 140.19C170.06 140.19 168.25 138.17 168.25 135.13C168.25 132.08 170.06 130.05 172.83 130.05C175.6 130.05 177.41 132.08 177.41 135.13ZM181.44 143.68L179.53 143.68L179.53 130.18L181.4 130.18L181.4 131.77L181.56 131.77C181.9 131.16 182.56 130.05 184.38 130.05C186.75 130.05 188.5 131.92 188.5 135.1C188.5 138.28 186.77 140.19 184.4 140.19C182.61 140.19 181.91 139.09 181.56 138.47L181.44 138.47L181.44 143.68ZM192.55 140L190.64 140L190.64 130.18L192.48 130.18L192.48 131.77L192.6 131.77C193.01 130.7 193.97 130.05 195.27 130.05C196.58 130.05 197.48 130.7 197.91 131.77L198.01 131.77C198.49 130.73 199.55 130.05 200.96 130.05C202.74 130.05 203.99 131.17 203.99 133.41L203.99 140L202.08 140L202.08 133.59C202.08 132.26 201.25 131.7 200.24 131.7C198.99 131.7 198.27 132.56 198.27 133.74L198.27 140L196.36 140L196.36 133.47C196.36 132.4 195.63 131.7 194.57 131.7C193.48 131.7 192.55 132.62 192.55 133.94L192.55 140ZM214.87 137.54C214.43 139.14 212.92 140.19 210.78 140.19C207.88 140.19 206.11 138.2 206.11 135.15C206.11 132.13 207.91 130.05 210.65 130.05C212.87 130.05 214.99 131.43 214.99 134.99L214.99 135.66L208.01 135.66C208.06 137.55 209.16 138.62 210.8 138.62C211.88 138.62 212.71 138.14 213.06 137.21L214.87 137.54ZM221.32 131.7C219.99 131.7 219.03 132.6 219.03 134.16L219.03 140L217.12 140L217.12 130.18L218.95 130.18L218.95 131.77L219.07 131.77C219.53 130.73 220.49 130.05 221.97 130.05C223.98 130.05 225.31 131.32 225.31 133.75L225.31 140L223.4 140L223.4 133.98C223.4 132.56 222.62 131.7 221.32 131.7ZM150.14 130.18L152.19 130.18L148.63 140L146.58 140L143.01 130.18L145.07 130.18L147.55 137.73L147.66 137.73L150.14 130.18ZM98.03 131.63C96.47 131.63 95.46 132.84 95.39 134.23L100.49 134.23C100.48 132.73 99.51 131.63 98.03 131.63ZM137.62 131.63C136.07 131.63 135.06 132.84 134.98 134.23L140.08 134.23C140.07 132.73 139.1 131.63 137.62 131.63ZM157.75 131.63C156.2 131.63 155.18 132.84 155.11 134.23L160.21 134.23C160.2 132.73 159.23 131.63 157.75 131.63ZM210.66 131.63C209.1 131.63 208.09 132.84 208.02 134.23L213.12 134.23C213.11 132.73 212.14 131.63 210.66 131.63ZM170.18 135.13C170.18 137.01 171.02 138.59 172.84 138.59C174.63 138.59 175.48 137.01 175.48 135.13C175.48 133.25 174.63 131.64 172.84 131.64C171.02 131.64 170.18 133.25 170.18 135.13ZM109.08 131.67C107.41 131.67 106.52 133.03 106.52 135.09C106.52 137.15 107.44 138.56 109.08 138.56C110.79 138.56 111.68 137.06 111.68 135.09C111.68 133.14 110.81 131.67 109.08 131.67ZM183.97 131.67C182.3 131.67 181.41 133.03 181.41 135.09C181.41 137.15 182.33 138.56 183.97 138.56C185.68 138.56 186.57 137.06 186.57 135.09C186.57 133.14 185.7 131.67 183.97 131.67Z" fill="#2B2B2B" fill-opacity="1.000000" fill-rule="evenodd"/>
	<path id="blog, e-commerce" d="M93.49 176L89.55 176L89.55 165.09L93.37 165.09C95.65 165.09 96.71 166.39 96.71 167.98C96.71 169.39 95.88 170.01 94.94 170.26L94.94 170.37C95.94 170.43 97.14 171.37 97.14 173.1C97.14 174.74 96.07 176 93.49 176ZM99.14 165.09L100.4 165.09L100.4 176L99.14 176L99.14 165.09ZM136.05 176L129.38 176L129.38 165.09L135.96 165.09L135.96 166.26L130.7 166.26L130.7 169.95L135.62 169.95L135.62 171.12L130.7 171.12L130.7 174.82L136.05 174.82L136.05 176ZM90.87 166.26L90.87 169.88L93.33 169.88C94.52 169.88 95.45 169.14 95.45 167.98C95.45 167.03 94.82 166.26 93.37 166.26L90.87 166.26ZM198.47 176L197.22 176L197.22 167.81L198.43 167.81L198.43 169.05L198.52 169.05C198.82 168.24 199.67 167.69 200.65 167.69C200.83 167.69 201.16 167.7 201.31 167.71L201.31 168.99C201.22 168.96 200.87 168.9 200.54 168.9C199.35 168.9 198.47 169.71 198.47 170.82L198.47 176ZM109.73 171.95C109.73 174.48 108.24 176.17 106.02 176.17C103.81 176.17 102.31 174.48 102.31 171.95C102.31 169.39 103.81 167.71 106.02 167.71C108.24 167.71 109.73 169.39 109.73 171.95ZM118.49 176.23C118.49 178.34 116.91 179.23 114.95 179.23C113.12 179.23 112.12 178.45 111.61 177.59L112.61 176.89C112.94 177.34 113.46 178.13 114.95 178.13C116.27 178.13 117.23 177.51 117.23 176.15L117.23 174.48L117.12 174.48C116.85 174.93 116.34 175.87 114.74 175.87C112.76 175.87 111.26 174.42 111.26 171.86C111.26 169.35 112.69 167.71 114.76 167.71C116.36 167.71 116.87 168.69 117.15 169.11L117.27 169.11L117.27 167.81L118.49 167.81L118.49 176.23ZM151.62 173.61C151.41 175.06 150.21 176.17 148.4 176.17C146.1 176.17 144.69 174.4 144.69 171.95C144.69 169.45 146.17 167.71 148.38 167.71C150.11 167.71 151.41 168.73 151.62 170.26L150.36 170.26C150.17 169.52 149.51 168.84 148.4 168.84C146.93 168.84 145.95 170.05 145.95 171.9C145.95 173.8 146.91 175.04 148.4 175.04C149.38 175.04 150.13 174.51 150.36 173.61L151.62 173.61ZM160.48 171.95C160.48 174.48 158.99 176.17 156.78 176.17C154.56 176.17 153.07 174.48 153.07 171.95C153.07 169.39 154.56 167.71 156.78 167.71C158.99 167.71 160.48 169.39 160.48 171.95ZM163.66 176L162.4 176L162.4 167.81L163.62 167.81L163.62 169.09L163.72 169.09C164.06 168.22 164.85 167.71 165.92 167.71C166.99 167.71 167.71 168.22 168.11 169.09L168.2 169.09C168.62 168.25 169.48 167.71 170.65 167.71C172.11 167.71 173.14 168.6 173.14 170.52L173.14 176L171.88 176L171.88 170.52C171.88 169.31 171.12 168.84 170.22 168.84C169.07 168.84 168.41 169.61 168.41 170.67L168.41 176L167.13 176L167.13 170.39C167.13 169.46 166.47 168.84 165.51 168.84C164.53 168.84 163.66 169.68 163.66 170.88L163.66 176ZM176.7 176L175.44 176L175.44 167.81L176.66 167.81L176.66 169.09L176.76 169.09C177.1 168.22 177.89 167.71 178.96 167.71C180.03 167.71 180.75 168.22 181.15 169.09L181.24 169.09C181.66 168.25 182.52 167.71 183.69 167.71C185.15 167.71 186.18 168.6 186.18 170.52L186.18 176L184.92 176L184.92 170.52C184.92 169.31 184.16 168.84 183.26 168.84C182.11 168.84 181.45 169.61 181.45 170.67L181.45 176L180.17 176L180.17 170.39C180.17 169.46 179.51 168.84 178.55 168.84C177.57 168.84 176.7 169.68 176.7 170.88L176.7 176ZM195.17 174.1C194.79 175.34 193.57 176.17 191.91 176.17C189.55 176.17 188.1 174.48 188.1 171.97C188.1 169.45 189.57 167.71 191.78 167.71C193.49 167.71 195.3 168.75 195.3 171.8L195.3 172.33L189.36 172.33C189.42 174.08 190.44 175.04 191.91 175.04C192.9 175.04 193.64 174.61 193.96 173.76L195.17 174.1ZM209.34 173.61C209.13 175.06 207.93 176.17 206.12 176.17C203.82 176.17 202.41 174.4 202.41 171.95C202.41 169.45 203.89 167.71 206.1 167.71C207.83 167.71 209.13 168.73 209.34 170.26L208.08 170.26C207.89 169.52 207.23 168.84 206.12 168.84C204.65 168.84 203.67 170.05 203.67 171.9C203.67 173.8 204.63 175.04 206.12 175.04C207.1 175.04 207.85 174.51 208.08 173.61L209.34 173.61ZM217.86 174.1C217.48 175.34 216.27 176.17 214.6 176.17C212.24 176.17 210.79 174.48 210.79 171.97C210.79 169.45 212.26 167.71 214.48 167.71C216.18 167.71 217.99 168.75 217.99 171.8L217.99 172.33L212.05 172.33C212.11 174.08 213.13 175.04 214.6 175.04C215.59 175.04 216.33 174.61 216.65 173.76L217.86 174.1ZM103.57 171.95C103.57 173.59 104.34 175.04 106.02 175.04C107.71 175.04 108.47 173.59 108.47 171.95C108.47 170.31 107.71 168.84 106.02 168.84C104.34 168.84 103.57 170.31 103.57 171.95ZM112.52 171.84C112.52 173.55 113.33 174.74 114.91 174.74C116.42 174.74 117.25 173.65 117.25 171.84C117.25 170.07 116.44 168.84 114.91 168.84C113.31 168.84 112.52 170.18 112.52 171.84ZM154.33 171.95C154.33 173.59 155.09 175.04 156.78 175.04C158.46 175.04 159.23 173.59 159.23 171.95C159.23 170.31 158.46 168.84 156.78 168.84C155.09 168.84 154.33 170.31 154.33 171.95ZM191.78 168.84C190.34 168.84 189.44 169.97 189.36 171.25L194.02 171.25C194.02 169.86 193.15 168.84 191.78 168.84ZM214.48 168.84C213.04 168.84 212.14 169.97 212.05 171.25L216.71 171.25C216.71 169.86 215.84 168.84 214.48 168.84ZM138.09 170.73L142.86 170.73L142.86 171.9L138.09 171.9L138.09 170.73ZM90.87 171.03L90.87 174.82L93.49 174.82C95.22 174.82 95.88 174.06 95.88 173.1C95.88 171.99 94.99 171.03 93.56 171.03L90.87 171.03ZM121.3 174.51L122.66 174.51L122.58 175.08C122.4 176.29 121.85 177.93 121.6 178.66L120.64 178.66C120.78 177.98 121.08 176.54 121.24 175.1L121.3 174.51Z" fill="#767676" fill-opacity="1.000000" fill-rule="evenodd"/>
</svg>
